

<svg version="1.1"
     baseProfile="full"
     width="3900" height="1620"
     xmlns="http://www.w3.org/2000/svg">
  <style>
    @font-face {
        font-family: "Fira Sans Condensed";
        src: url("https://fonts.googleapis.com/css?family=Fira+Sans+Condensed&amp;display=swap");
    }
  </style>

  <!-- Background -->
  <defs>
    <linearGradient id="BackgroundGradient" x1="0" y1="0" x2="100%" y2="100%">
      <stop offset="0%" stop-color="white"/>
      <stop offset="100%" stop-color="cornsilk"/>
    </linearGradient>
  </defs>
  <rect width="100%" height="100%" fill="url(#BackgroundGradient)"/>

  <!-- Information -->
<g font-family="Fira Sans Condensed" font-size="20px">
<text x="20" y="1930">Version 1.0-preview</text>
<text x="20" y="1955">© 2019 Colin Angus Mackay. https://github.com/colinangusmackay/scotland-travel-routes/blob/master/LICENSE</text>
<text x="20" y="1980">Report issues to: https://github.com/colinangusmackay/scotland-travel-routes/issues</text>
</g>

    <!-- Legend for 43 : Queensferry - Edinburgh -->
<rect x="10" y="100" fill="crimson" height="200" width="3500" stroke="white" stroke-width="1"/>
<g text-anchor="start" font-size="180px" dominant-baseline="hanging" fill="white" font-family="Fira Sans Condensed">
<text x="60" y="110" font-weight="bold">43</text>
<text x="610" y="110">Queensferry - Edinburgh</text>
</g>

      <!-- 43 A : Queensferry -->
      <!-- Connector: --> 
      <!-- 43 B : Ferrymuir Retail Park -->
      <!-- Connector: --> <path d="M1000,700 L700,700" stroke="crimson" fill="none" stroke-width="20" stroke-linecap="round" stroke-linejoin="round"/>
      <!-- 43 C : Echline Corner -->
      <!-- Connector: --> <path d="M700,700 L675,700 L450,700 A50 50 0 0 1 400,650 L400,550" stroke="crimson" fill="none" stroke-width="20" stroke-linecap="round" stroke-linejoin="round"/>
      <!-- 43 D : Queensferry Police Station -->
      <!-- Connector: --> <path d="M400,550 L400,525 L400,450 A50 50 0 0 1 450,400 L800,400" stroke="crimson" fill="none" stroke-width="20" stroke-linecap="round" stroke-linejoin="round"/>
      <!-- 43 E : Dalmany -->
      <!-- Connector: --> <path d="M800,400 L1200,400" stroke="crimson" fill="none" stroke-width="20" stroke-linecap="round" stroke-linejoin="round"/>
      <!-- 43 F : Barnbougle Gate Lodge -->
      <!-- Connector: --> <path d="M1200,400 L1225,400 L1264.6446609406726,400 A50 50 0 0 1 1300,414.6446609406726 L1482.3223304703363,582.3223304703363 L1500,600" stroke="crimson" fill="none" stroke-width="20" stroke-linecap="round" stroke-linejoin="round"/>
      <!-- 43 G : Burnshot -->
      <!-- Connector: --> <path d="M1500,600 L1600,700" stroke="crimson" fill="none" stroke-width="20" stroke-linecap="round" stroke-linejoin="round"/>
      <!-- 43 H : Crammond Bridge -->
      <!-- Connector: --> <path d="M1600,700 L1700,800" stroke="crimson" fill="none" stroke-width="20" stroke-linecap="round" stroke-linejoin="round"/>
      <!-- 43 I : Barnton -->
      <!-- Connector: --> <path d="M1700,800 L1785.3553390593274,885.3553390593274 A50 50 0 0 0 1814.6446609406726,900 L1875,900 L1900,900" stroke="crimson" fill="none" stroke-width="20" stroke-linecap="round" stroke-linejoin="round"/>
      <!-- 43 J : Clermiston Rd N -->
      <!-- Connector: --> <path d="M1900,900 L2100,900" stroke="crimson" fill="none" stroke-width="20" stroke-linecap="round" stroke-linejoin="round"/>
      <!-- 43 K : Blackhall -->
      <!-- Connector: --> <path d="M2100,900 L2300,900" stroke="crimson" fill="none" stroke-width="20" stroke-linecap="round" stroke-linejoin="round"/>
      <!-- 43 L : Craigleith -->
      <!-- Connector: --> <path d="M2300,900 L2325,900 L2364.644660940673,900 A50 50 0 0 1 2400.0000000000005,914.6446609406727 L2482.3223304703365,982.3223304703363 L2500,1000" stroke="crimson" fill="none" stroke-width="20" stroke-linecap="round" stroke-linejoin="round"/>
      <!-- 43 M : Stewart&#x27;s Melville -->
      <!-- Connector: --> <path d="M2500,1000 L2585.3553390593274,1085.3553390593274 A50 50 0 0 0 2614.6446609406726,1100 L2775,1100 L2800,1100" stroke="crimson" fill="none" stroke-width="20" stroke-linecap="round" stroke-linejoin="round"/>
      <!-- 43 N : Dean Bridge -->
      <!-- Connector: --> <path d="M2800,1100 L2825,1100 L2850,1100 A50 50 0 0 1 2900,1150 L2900,1200" stroke="crimson" fill="none" stroke-width="20" stroke-linecap="round" stroke-linejoin="round"/>
      <!-- 43 O : West End -->
      <!-- Connector: --> <path d="M2900,1200 L2900,1225 L2900,1350 A50 50 0 0 0 2950,1400 L3050,1400" stroke="crimson" fill="none" stroke-width="20" stroke-linecap="round" stroke-linejoin="round"/>
      <!-- 43 Oa :  -->
      <!-- Connector: --> <path d="M3050,1400 L3075,1400 L3150,1400 A50 50 0 0 0 3200,1350 L3200,1325" stroke="crimson" fill="none" stroke-width="20" stroke-linecap="round" stroke-linejoin="round"/>
      <!-- 43 P : George Street -->
      <!-- Connector: --> <path d="M3200,1325 L3200,1300 L3200,1300 A50 50 0 0 1 3250,1250 L3300,1250" stroke="crimson" fill="none" stroke-width="20" stroke-linecap="round" stroke-linejoin="round"/>
      <!-- 43 Q : St. Andrew Sq -->
      <!-- Connector: --> <path d="M3300,1250 L3500,1250" stroke="crimson" fill="none" stroke-width="20" stroke-linecap="round" stroke-linejoin="round"/>

      <!-- 43 A : Queensferry -->
<!-- Terminator: --> <rect x="990" y="675" width="20" height="50" fill="crimson" /><text x="1020" y="700" dominant-baseline="middle" font-family="Fira Sans Condensed" font-size="50px">43</text>
<!-- Label: --> <text x="1000" y="730" font-family="Fira Sans Condensed" dominant-baseline="hanging" text-anchor="middle" font-size="50px">Queensferry</text>
<!-- Cell: --> <circle cx="1000" cy="700" r="25" stroke="red" stroke-width="2" stroke-dasharray="3" fill="none" /><polyline points="975,675 1025,675 1025,725 975,725 975,675" stroke="silver" fill="none" stroke-dasharray="3"/><polyline points="975,675 1025,725" stroke="silver" fill="none" stroke-dasharray="3"/><polyline points="1025,675 975,725" stroke="silver" fill="none" stroke-dasharray="3"/><polyline points="975,680 975,675 980,675" stroke="black" fill="none"/><polyline points="1025,680 1025,675 1020,675" stroke="black" fill="none"/><polyline points="1025,720 1025,725 1020,725" stroke="black" fill="none"/><polyline points="975,720 975,725 980,725" stroke="black" fill="none"/><polyline points="995,675 1005,675" stroke="black" fill="none"/><polyline points="995,725 1005,725" stroke="black" fill="none"/><polyline points="975,695 975,705" stroke="black" fill="none"/><polyline points="1025,695 1025,705" stroke="black" fill="none"/><polyline points="995,700 1005,700" stroke="black" fill="none"/><polyline points="1000,695 1000,705" stroke="black" fill="none"/>
      <!-- 43 B : Ferrymuir Retail Park -->
<!-- Junction: --> <polyline points="700,700 700,675" stroke="crimson" fill="none" stroke-width="20" stroke-linecap="butt"/>
<!-- Label: --> <text x="700" y="620" font-family="Fira Sans Condensed" dominant-baseline="hanging" text-anchor="middle" font-size="50px">Ferrymuir Retail Park</text>
<!-- Cell: --> <circle cx="700" cy="700" r="25" stroke="red" stroke-width="2" stroke-dasharray="3" fill="none" /><polyline points="675,675 725,675 725,725 675,725 675,675" stroke="silver" fill="none" stroke-dasharray="3"/><polyline points="675,675 725,725" stroke="silver" fill="none" stroke-dasharray="3"/><polyline points="725,675 675,725" stroke="silver" fill="none" stroke-dasharray="3"/><polyline points="675,680 675,675 680,675" stroke="black" fill="none"/><polyline points="725,680 725,675 720,675" stroke="black" fill="none"/><polyline points="725,720 725,725 720,725" stroke="black" fill="none"/><polyline points="675,720 675,725 680,725" stroke="black" fill="none"/><polyline points="695,675 705,675" stroke="black" fill="none"/><polyline points="695,725 705,725" stroke="black" fill="none"/><polyline points="675,695 675,705" stroke="black" fill="none"/><polyline points="725,695 725,705" stroke="black" fill="none"/><polyline points="695,700 705,700" stroke="black" fill="none"/><polyline points="700,695 700,705" stroke="black" fill="none"/>
      <!-- 43 C : Echline Corner -->
<!-- Junction: --> <polyline points="400,550 375,550" stroke="crimson" fill="none" stroke-width="20" stroke-linecap="butt"/>
<!-- Label: --> <text x="370" y="525" font-family="Fira Sans Condensed" dominant-baseline="hanging" text-anchor="end" font-size="50px">Echline Corner</text>
<!-- Cell: --> <circle cx="400" cy="550" r="25" stroke="red" stroke-width="2" stroke-dasharray="3" fill="none" /><polyline points="375,530 375,525 380,525" stroke="black" fill="none"/><polyline points="425,530 425,525 420,525" stroke="black" fill="none"/><polyline points="425,570 425,575 420,575" stroke="black" fill="none"/><polyline points="375,570 375,575 380,575" stroke="black" fill="none"/><polyline points="395,525 405,525" stroke="black" fill="none"/><polyline points="395,575 405,575" stroke="black" fill="none"/><polyline points="375,545 375,555" stroke="black" fill="none"/><polyline points="425,545 425,555" stroke="black" fill="none"/><polyline points="395,550 405,550" stroke="black" fill="none"/><polyline points="400,545 400,555" stroke="black" fill="none"/>
      <!-- 43 D : Queensferry Police Station -->
<!-- Junction: --> <polyline points="800,400 800,425" stroke="crimson" fill="none" stroke-width="20" stroke-linecap="butt"/>
<!-- Label: --> <text x="800" y="430" font-family="Fira Sans Condensed" dominant-baseline="hanging" text-anchor="middle" font-size="50px">Queensferry Police Station</text>
<!-- Cell: --> <circle cx="800" cy="400" r="25" stroke="red" stroke-width="2" stroke-dasharray="3" fill="none" /><polyline points="775,375 825,375 825,425 775,425 775,375" stroke="silver" fill="none" stroke-dasharray="3"/><polyline points="775,375 825,425" stroke="silver" fill="none" stroke-dasharray="3"/><polyline points="825,375 775,425" stroke="silver" fill="none" stroke-dasharray="3"/><polyline points="775,380 775,375 780,375" stroke="black" fill="none"/><polyline points="825,380 825,375 820,375" stroke="black" fill="none"/><polyline points="825,420 825,425 820,425" stroke="black" fill="none"/><polyline points="775,420 775,425 780,425" stroke="black" fill="none"/><polyline points="795,375 805,375" stroke="black" fill="none"/><polyline points="795,425 805,425" stroke="black" fill="none"/><polyline points="775,395 775,405" stroke="black" fill="none"/><polyline points="825,395 825,405" stroke="black" fill="none"/><polyline points="795,400 805,400" stroke="black" fill="none"/><polyline points="800,395 800,405" stroke="black" fill="none"/>
      <!-- 43 E : Dalmany -->
<!-- Junction: --> <polyline points="1200,400 1200,375" stroke="crimson" fill="none" stroke-width="20" stroke-linecap="butt"/>
<!-- Label: --> <text x="1200" y="320" font-family="Fira Sans Condensed" dominant-baseline="hanging" text-anchor="middle" font-size="50px">Dalmany</text>
<!-- Cell: --> <circle cx="1200" cy="400" r="25" stroke="red" stroke-width="2" stroke-dasharray="3" fill="none" /><polyline points="1175,375 1225,375 1225,425 1175,425 1175,375" stroke="silver" fill="none" stroke-dasharray="3"/><polyline points="1175,375 1225,425" stroke="silver" fill="none" stroke-dasharray="3"/><polyline points="1225,375 1175,425" stroke="silver" fill="none" stroke-dasharray="3"/><polyline points="1175,380 1175,375 1180,375" stroke="black" fill="none"/><polyline points="1225,380 1225,375 1220,375" stroke="black" fill="none"/><polyline points="1225,420 1225,425 1220,425" stroke="black" fill="none"/><polyline points="1175,420 1175,425 1180,425" stroke="black" fill="none"/><polyline points="1195,375 1205,375" stroke="black" fill="none"/><polyline points="1195,425 1205,425" stroke="black" fill="none"/><polyline points="1175,395 1175,405" stroke="black" fill="none"/><polyline points="1225,395 1225,405" stroke="black" fill="none"/><polyline points="1195,400 1205,400" stroke="black" fill="none"/><polyline points="1200,395 1200,405" stroke="black" fill="none"/>
      <!-- 43 F : Barnbougle Gate Lodge -->
<!-- Junction: --> <polyline points="1500,600 1517.6776695296637,582.3223304703363" stroke="crimson" fill="none" stroke-width="20" stroke-linecap="butt"/>
<!-- Label: --> <text x="1530" y="520" font-family="Fira Sans Condensed" dominant-baseline="hanging" text-anchor="start" font-size="50px">Barnbougle Gate Lodge</text>
<!-- Cell: --> <circle cx="1500" cy="600" r="25" stroke="red" stroke-width="2" stroke-dasharray="3" fill="none" />
      <!-- 43 G : Burnshot -->
<!-- Junction: --> <polyline points="1600,700 1617.6776695296637,682.3223304703363" stroke="crimson" fill="none" stroke-width="20" stroke-linecap="butt"/>
<!-- Label: --> <text x="1630" y="620" font-family="Fira Sans Condensed" dominant-baseline="hanging" text-anchor="start" font-size="50px">Burnshot</text>
<!-- Cell: --> <circle cx="1600" cy="700" r="25" stroke="red" stroke-width="2" stroke-dasharray="3" fill="none" />
      <!-- 43 H : Crammond Bridge -->
<!-- Junction: --> <polyline points="1700,800 1717.6776695296637,782.3223304703363" stroke="crimson" fill="none" stroke-width="20" stroke-linecap="butt"/>
<!-- Label: --> <text x="1730" y="720" font-family="Fira Sans Condensed" dominant-baseline="hanging" text-anchor="start" font-size="50px">Crammond Bridge</text>
<!-- Cell: --> <circle cx="1700" cy="800" r="25" stroke="red" stroke-width="2" stroke-dasharray="3" fill="none" />
      <!-- 43 I : Barnton -->
<!-- Junction: --> <polyline points="1900,900 1900,875" stroke="crimson" fill="none" stroke-width="20" stroke-linecap="butt"/>
<!-- Label: --> <text x="1900" y="820" font-family="Fira Sans Condensed" dominant-baseline="hanging" text-anchor="middle" font-size="50px">Barnton</text>
<!-- Cell: --> <circle cx="1900" cy="900" r="25" stroke="red" stroke-width="2" stroke-dasharray="3" fill="none" /><polyline points="1875,875 1925,875 1925,925 1875,925 1875,875" stroke="silver" fill="none" stroke-dasharray="3"/><polyline points="1875,875 1925,925" stroke="silver" fill="none" stroke-dasharray="3"/><polyline points="1925,875 1875,925" stroke="silver" fill="none" stroke-dasharray="3"/><polyline points="1875,880 1875,875 1880,875" stroke="black" fill="none"/><polyline points="1925,880 1925,875 1920,875" stroke="black" fill="none"/><polyline points="1925,920 1925,925 1920,925" stroke="black" fill="none"/><polyline points="1875,920 1875,925 1880,925" stroke="black" fill="none"/><polyline points="1895,875 1905,875" stroke="black" fill="none"/><polyline points="1895,925 1905,925" stroke="black" fill="none"/><polyline points="1875,895 1875,905" stroke="black" fill="none"/><polyline points="1925,895 1925,905" stroke="black" fill="none"/><polyline points="1895,900 1905,900" stroke="black" fill="none"/><polyline points="1900,895 1900,905" stroke="black" fill="none"/>
      <!-- 43 J : Clermiston Rd N -->
<!-- Junction: --> <polyline points="2100,900 2100,925" stroke="crimson" fill="none" stroke-width="20" stroke-linecap="butt"/>
<!-- Label: --> <text x="2100" y="930" font-family="Fira Sans Condensed" dominant-baseline="hanging" text-anchor="middle" font-size="50px">Clermiston Rd N</text>
<!-- Cell: --> <circle cx="2100" cy="900" r="25" stroke="red" stroke-width="2" stroke-dasharray="3" fill="none" /><polyline points="2075,875 2125,875 2125,925 2075,925 2075,875" stroke="silver" fill="none" stroke-dasharray="3"/><polyline points="2075,875 2125,925" stroke="silver" fill="none" stroke-dasharray="3"/><polyline points="2125,875 2075,925" stroke="silver" fill="none" stroke-dasharray="3"/><polyline points="2075,880 2075,875 2080,875" stroke="black" fill="none"/><polyline points="2125,880 2125,875 2120,875" stroke="black" fill="none"/><polyline points="2125,920 2125,925 2120,925" stroke="black" fill="none"/><polyline points="2075,920 2075,925 2080,925" stroke="black" fill="none"/><polyline points="2095,875 2105,875" stroke="black" fill="none"/><polyline points="2095,925 2105,925" stroke="black" fill="none"/><polyline points="2075,895 2075,905" stroke="black" fill="none"/><polyline points="2125,895 2125,905" stroke="black" fill="none"/><polyline points="2095,900 2105,900" stroke="black" fill="none"/><polyline points="2100,895 2100,905" stroke="black" fill="none"/>
      <!-- 43 K : Blackhall -->
<!-- Junction: --> <polyline points="2300,900 2300,875" stroke="crimson" fill="none" stroke-width="20" stroke-linecap="butt"/>
<!-- Label: --> <text x="2300" y="820" font-family="Fira Sans Condensed" dominant-baseline="hanging" text-anchor="middle" font-size="50px">Blackhall</text>
<!-- Cell: --> <circle cx="2300" cy="900" r="25" stroke="red" stroke-width="2" stroke-dasharray="3" fill="none" /><polyline points="2275,875 2325,875 2325,925 2275,925 2275,875" stroke="silver" fill="none" stroke-dasharray="3"/><polyline points="2275,875 2325,925" stroke="silver" fill="none" stroke-dasharray="3"/><polyline points="2325,875 2275,925" stroke="silver" fill="none" stroke-dasharray="3"/><polyline points="2275,880 2275,875 2280,875" stroke="black" fill="none"/><polyline points="2325,880 2325,875 2320,875" stroke="black" fill="none"/><polyline points="2325,920 2325,925 2320,925" stroke="black" fill="none"/><polyline points="2275,920 2275,925 2280,925" stroke="black" fill="none"/><polyline points="2295,875 2305,875" stroke="black" fill="none"/><polyline points="2295,925 2305,925" stroke="black" fill="none"/><polyline points="2275,895 2275,905" stroke="black" fill="none"/><polyline points="2325,895 2325,905" stroke="black" fill="none"/><polyline points="2295,900 2305,900" stroke="black" fill="none"/><polyline points="2300,895 2300,905" stroke="black" fill="none"/>
      <!-- 43 L : Craigleith -->
<!-- Junction: --> <polyline points="2500,1000 2517.6776695296635,982.3223304703363" stroke="crimson" fill="none" stroke-width="20" stroke-linecap="butt"/>
<!-- Label: --> <text x="2530" y="920" font-family="Fira Sans Condensed" dominant-baseline="hanging" text-anchor="start" font-size="50px">Craigleith</text>
<!-- Cell: --> <circle cx="2500" cy="1000" r="25" stroke="red" stroke-width="2" stroke-dasharray="3" fill="none" />
      <!-- 43 M : Stewart&#x27;s Melville -->
<!-- Junction: --> <polyline points="2800,1100 2800,1075" stroke="crimson" fill="none" stroke-width="20" stroke-linecap="butt"/>
<!-- Label: --> <text x="2800" y="1020" font-family="Fira Sans Condensed" dominant-baseline="hanging" text-anchor="middle" font-size="50px">Stewart's Melville</text>
<!-- Cell: --> <circle cx="2800" cy="1100" r="25" stroke="red" stroke-width="2" stroke-dasharray="3" fill="none" /><polyline points="2775,1075 2825,1075 2825,1125 2775,1125 2775,1075" stroke="silver" fill="none" stroke-dasharray="3"/><polyline points="2775,1075 2825,1125" stroke="silver" fill="none" stroke-dasharray="3"/><polyline points="2825,1075 2775,1125" stroke="silver" fill="none" stroke-dasharray="3"/><polyline points="2775,1080 2775,1075 2780,1075" stroke="black" fill="none"/><polyline points="2825,1080 2825,1075 2820,1075" stroke="black" fill="none"/><polyline points="2825,1120 2825,1125 2820,1125" stroke="black" fill="none"/><polyline points="2775,1120 2775,1125 2780,1125" stroke="black" fill="none"/><polyline points="2795,1075 2805,1075" stroke="black" fill="none"/><polyline points="2795,1125 2805,1125" stroke="black" fill="none"/><polyline points="2775,1095 2775,1105" stroke="black" fill="none"/><polyline points="2825,1095 2825,1105" stroke="black" fill="none"/><polyline points="2795,1100 2805,1100" stroke="black" fill="none"/><polyline points="2800,1095 2800,1105" stroke="black" fill="none"/>
      <!-- 43 N : Dean Bridge -->
<!-- Junction: --> <polyline points="2900,1200 2875,1200" stroke="crimson" fill="none" stroke-width="20" stroke-linecap="butt"/>
<!-- Label: --> <text x="2870" y="1175" font-family="Fira Sans Condensed" dominant-baseline="hanging" text-anchor="end" font-size="50px">Dean Bridge</text>
<!-- Cell: --> <circle cx="2900" cy="1200" r="25" stroke="red" stroke-width="2" stroke-dasharray="3" fill="none" /><polyline points="2875,1180 2875,1175 2880,1175" stroke="black" fill="none"/><polyline points="2925,1180 2925,1175 2920,1175" stroke="black" fill="none"/><polyline points="2925,1220 2925,1225 2920,1225" stroke="black" fill="none"/><polyline points="2875,1220 2875,1225 2880,1225" stroke="black" fill="none"/><polyline points="2895,1175 2905,1175" stroke="black" fill="none"/><polyline points="2895,1225 2905,1225" stroke="black" fill="none"/><polyline points="2875,1195 2875,1205" stroke="black" fill="none"/><polyline points="2925,1195 2925,1205" stroke="black" fill="none"/><polyline points="2895,1200 2905,1200" stroke="black" fill="none"/><polyline points="2900,1195 2900,1205" stroke="black" fill="none"/>
      <!-- 43 O : West End -->
<!-- Junction: --> <polyline points="3050,1400 3050,1375" stroke="crimson" fill="none" stroke-width="20" stroke-linecap="butt"/>
<!-- Label: --> <text x="3050" y="1320" font-family="Fira Sans Condensed" dominant-baseline="hanging" text-anchor="middle" font-size="50px">West End</text>
<!-- Cell: --> <circle cx="3050" cy="1400" r="25" stroke="red" stroke-width="2" stroke-dasharray="3" fill="none" /><polyline points="3025,1375 3075,1375 3075,1425 3025,1425 3025,1375" stroke="silver" fill="none" stroke-dasharray="3"/><polyline points="3025,1375 3075,1425" stroke="silver" fill="none" stroke-dasharray="3"/><polyline points="3075,1375 3025,1425" stroke="silver" fill="none" stroke-dasharray="3"/><polyline points="3025,1380 3025,1375 3030,1375" stroke="black" fill="none"/><polyline points="3075,1380 3075,1375 3070,1375" stroke="black" fill="none"/><polyline points="3075,1420 3075,1425 3070,1425" stroke="black" fill="none"/><polyline points="3025,1420 3025,1425 3030,1425" stroke="black" fill="none"/><polyline points="3045,1375 3055,1375" stroke="black" fill="none"/><polyline points="3045,1425 3055,1425" stroke="black" fill="none"/><polyline points="3025,1395 3025,1405" stroke="black" fill="none"/><polyline points="3075,1395 3075,1405" stroke="black" fill="none"/><polyline points="3045,1400 3055,1400" stroke="black" fill="none"/><polyline points="3050,1395 3050,1405" stroke="black" fill="none"/>
      <!-- 43 Oa :  -->
<!-- Cell: --> <circle cx="3200" cy="1325" r="25" stroke="red" stroke-width="2" stroke-dasharray="3" fill="none" /><polyline points="3175,1305 3175,1300 3180,1300" stroke="black" fill="none"/><polyline points="3225,1305 3225,1300 3220,1300" stroke="black" fill="none"/><polyline points="3225,1345 3225,1350 3220,1350" stroke="black" fill="none"/><polyline points="3175,1345 3175,1350 3180,1350" stroke="black" fill="none"/><polyline points="3195,1300 3205,1300" stroke="black" fill="none"/><polyline points="3195,1350 3205,1350" stroke="black" fill="none"/><polyline points="3175,1320 3175,1330" stroke="black" fill="none"/><polyline points="3225,1320 3225,1330" stroke="black" fill="none"/><polyline points="3195,1325 3205,1325" stroke="black" fill="none"/><polyline points="3200,1320 3200,1330" stroke="black" fill="none"/>
      <!-- 43 P : George Street -->
<!-- Junction: --> <polyline points="3300,1250 3300,1225" stroke="crimson" fill="none" stroke-width="20" stroke-linecap="butt"/>
<!-- Label: --> <text x="3300" y="1170" font-family="Fira Sans Condensed" dominant-baseline="hanging" text-anchor="middle" font-size="50px">George Street</text>
<!-- Cell: --> <circle cx="3300" cy="1250" r="25" stroke="red" stroke-width="2" stroke-dasharray="3" fill="none" /><polyline points="3275,1225 3325,1225 3325,1275 3275,1275 3275,1225" stroke="silver" fill="none" stroke-dasharray="3"/><polyline points="3275,1225 3325,1275" stroke="silver" fill="none" stroke-dasharray="3"/><polyline points="3325,1225 3275,1275" stroke="silver" fill="none" stroke-dasharray="3"/><polyline points="3275,1230 3275,1225 3280,1225" stroke="black" fill="none"/><polyline points="3325,1230 3325,1225 3320,1225" stroke="black" fill="none"/><polyline points="3325,1270 3325,1275 3320,1275" stroke="black" fill="none"/><polyline points="3275,1270 3275,1275 3280,1275" stroke="black" fill="none"/><polyline points="3295,1225 3305,1225" stroke="black" fill="none"/><polyline points="3295,1275 3305,1275" stroke="black" fill="none"/><polyline points="3275,1245 3275,1255" stroke="black" fill="none"/><polyline points="3325,1245 3325,1255" stroke="black" fill="none"/><polyline points="3295,1250 3305,1250" stroke="black" fill="none"/><polyline points="3300,1245 3300,1255" stroke="black" fill="none"/>
      <!-- 43 Q : St. Andrew Sq -->
<!-- Terminator: --> <rect x="3490" y="1225" width="20" height="50" fill="crimson" />
<!-- Label: --> <text x="3480" y="1170" font-family="Fira Sans Condensed" dominant-baseline="hanging" text-anchor="start" font-size="50px">St. Andrew Sq</text>
<!-- Cell: --> <circle cx="3500" cy="1250" r="25" stroke="red" stroke-width="2" stroke-dasharray="3" fill="none" /><polyline points="3475,1225 3525,1225 3525,1275 3475,1275 3475,1225" stroke="silver" fill="none" stroke-dasharray="3"/><polyline points="3475,1225 3525,1275" stroke="silver" fill="none" stroke-dasharray="3"/><polyline points="3525,1225 3475,1275" stroke="silver" fill="none" stroke-dasharray="3"/><polyline points="3475,1230 3475,1225 3480,1225" stroke="black" fill="none"/><polyline points="3525,1230 3525,1225 3520,1225" stroke="black" fill="none"/><polyline points="3525,1270 3525,1275 3520,1275" stroke="black" fill="none"/><polyline points="3475,1270 3475,1275 3480,1275" stroke="black" fill="none"/><polyline points="3495,1225 3505,1225" stroke="black" fill="none"/><polyline points="3495,1275 3505,1275" stroke="black" fill="none"/><polyline points="3475,1245 3475,1255" stroke="black" fill="none"/><polyline points="3525,1245 3525,1255" stroke="black" fill="none"/><polyline points="3495,1250 3505,1250" stroke="black" fill="none"/><polyline points="3500,1245 3500,1255" stroke="black" fill="none"/>
    <!-- Legend for X2 : Green Arrow Express -->
<rect x="10" y="300" fill="green" height="200" width="3500" stroke="white" stroke-width="1"/>
<g text-anchor="start" font-size="180px" dominant-baseline="hanging" fill="white" font-family="Fira Sans Condensed">
<text x="60" y="310" font-weight="bold">X2</text>
<text x="610" y="310">Green Arrow Express</text>
</g>

      <!-- X2 K : Ratho Station -->
      <!-- Connector: --> 
      <!-- X2 L : Gogarburn -->
      <!-- Connector: --> <path d="M1200,1420 L1500,1420" stroke="green" fill="none" stroke-width="20" stroke-linecap="round" stroke-linejoin="round"/>
      <!-- X2 M : Maybury -->
      <!-- Connector: --> <path d="M1500,1420 L1800,1420" stroke="green" fill="none" stroke-width="20" stroke-linecap="round" stroke-linejoin="round"/>
      <!-- X2 N : Edinburgh Zoo -->
      <!-- Connector: --> <path d="M1800,1420 L2300,1420" stroke="green" fill="none" stroke-width="20" stroke-linecap="round" stroke-linejoin="round"/>
      <!-- X2 O : Haymarket -->
      <!-- Connector: --> <path d="M2300,1420 L2700,1420" stroke="green" fill="none" stroke-width="20" stroke-linecap="round" stroke-linejoin="round"/>
      <!-- X2 Oa :  -->
      <!-- Connector: --> <path d="M2700,1420 L2725,1420 L3170,1420 A50 50 0 0 0 3220,1370 L3220,1345" stroke="green" fill="none" stroke-width="20" stroke-linecap="round" stroke-linejoin="round"/>
      <!-- X2 P :  -->
      <!-- Connector: --> <path d="M3220,1345 L3220,1320 L3220,1320 A50 50 0 0 1 3270,1270 L3300,1270" stroke="green" fill="none" stroke-width="20" stroke-linecap="round" stroke-linejoin="round"/>
      <!-- X2 Q :  -->
      <!-- Connector: --> <path d="M3300,1270 L3500,1270" stroke="green" fill="none" stroke-width="20" stroke-linecap="round" stroke-linejoin="round"/>

      <!-- X2 K : Ratho Station -->
<!-- Junction: --> <polyline points="1200,1420 1200,1445" stroke="green" fill="none" stroke-width="20" stroke-linecap="butt"/>
<!-- Label: --> <text x="1200" y="1450" font-family="Fira Sans Condensed" dominant-baseline="hanging" text-anchor="middle" font-size="50px">Ratho Station</text>
<!-- Cell: --> <circle cx="1200" cy="1420" r="25" stroke="red" stroke-width="2" stroke-dasharray="3" fill="none" /><polyline points="1175,1395 1225,1395 1225,1445 1175,1445 1175,1395" stroke="silver" fill="none" stroke-dasharray="3"/><polyline points="1175,1395 1225,1445" stroke="silver" fill="none" stroke-dasharray="3"/><polyline points="1225,1395 1175,1445" stroke="silver" fill="none" stroke-dasharray="3"/><polyline points="1175,1400 1175,1395 1180,1395" stroke="black" fill="none"/><polyline points="1225,1400 1225,1395 1220,1395" stroke="black" fill="none"/><polyline points="1225,1440 1225,1445 1220,1445" stroke="black" fill="none"/><polyline points="1175,1440 1175,1445 1180,1445" stroke="black" fill="none"/><polyline points="1195,1395 1205,1395" stroke="black" fill="none"/><polyline points="1195,1445 1205,1445" stroke="black" fill="none"/><polyline points="1175,1415 1175,1425" stroke="black" fill="none"/><polyline points="1225,1415 1225,1425" stroke="black" fill="none"/><polyline points="1195,1420 1205,1420" stroke="black" fill="none"/><polyline points="1200,1415 1200,1425" stroke="black" fill="none"/>
      <!-- X2 L : Gogarburn -->
<!-- Junction: --> <polyline points="1500,1420 1500,1395" stroke="green" fill="none" stroke-width="20" stroke-linecap="butt"/>
<!-- Label: --> <text x="1500" y="1340" font-family="Fira Sans Condensed" dominant-baseline="hanging" text-anchor="middle" font-size="50px">Gogarburn</text>
<!-- Cell: --> <circle cx="1500" cy="1420" r="25" stroke="red" stroke-width="2" stroke-dasharray="3" fill="none" /><polyline points="1475,1395 1525,1395 1525,1445 1475,1445 1475,1395" stroke="silver" fill="none" stroke-dasharray="3"/><polyline points="1475,1395 1525,1445" stroke="silver" fill="none" stroke-dasharray="3"/><polyline points="1525,1395 1475,1445" stroke="silver" fill="none" stroke-dasharray="3"/><polyline points="1475,1400 1475,1395 1480,1395" stroke="black" fill="none"/><polyline points="1525,1400 1525,1395 1520,1395" stroke="black" fill="none"/><polyline points="1525,1440 1525,1445 1520,1445" stroke="black" fill="none"/><polyline points="1475,1440 1475,1445 1480,1445" stroke="black" fill="none"/><polyline points="1495,1395 1505,1395" stroke="black" fill="none"/><polyline points="1495,1445 1505,1445" stroke="black" fill="none"/><polyline points="1475,1415 1475,1425" stroke="black" fill="none"/><polyline points="1525,1415 1525,1425" stroke="black" fill="none"/><polyline points="1495,1420 1505,1420" stroke="black" fill="none"/><polyline points="1500,1415 1500,1425" stroke="black" fill="none"/>
      <!-- X2 M : Maybury -->
<!-- Junction: --> <polyline points="1800,1420 1800,1445" stroke="green" fill="none" stroke-width="20" stroke-linecap="butt"/>
<!-- Label: --> <text x="1800" y="1450" font-family="Fira Sans Condensed" dominant-baseline="hanging" text-anchor="middle" font-size="50px">Maybury</text>
<!-- Cell: --> <circle cx="1800" cy="1420" r="25" stroke="red" stroke-width="2" stroke-dasharray="3" fill="none" /><polyline points="1775,1395 1825,1395 1825,1445 1775,1445 1775,1395" stroke="silver" fill="none" stroke-dasharray="3"/><polyline points="1775,1395 1825,1445" stroke="silver" fill="none" stroke-dasharray="3"/><polyline points="1825,1395 1775,1445" stroke="silver" fill="none" stroke-dasharray="3"/><polyline points="1775,1400 1775,1395 1780,1395" stroke="black" fill="none"/><polyline points="1825,1400 1825,1395 1820,1395" stroke="black" fill="none"/><polyline points="1825,1440 1825,1445 1820,1445" stroke="black" fill="none"/><polyline points="1775,1440 1775,1445 1780,1445" stroke="black" fill="none"/><polyline points="1795,1395 1805,1395" stroke="black" fill="none"/><polyline points="1795,1445 1805,1445" stroke="black" fill="none"/><polyline points="1775,1415 1775,1425" stroke="black" fill="none"/><polyline points="1825,1415 1825,1425" stroke="black" fill="none"/><polyline points="1795,1420 1805,1420" stroke="black" fill="none"/><polyline points="1800,1415 1800,1425" stroke="black" fill="none"/>
      <!-- X2 N : Edinburgh Zoo -->
<!-- Junction: --> <polyline points="2300,1420 2300,1395" stroke="green" fill="none" stroke-width="20" stroke-linecap="butt"/>
<!-- Label: --> <text x="2300" y="1340" font-family="Fira Sans Condensed" dominant-baseline="hanging" text-anchor="middle" font-size="50px">Edinburgh Zoo</text>
<!-- Cell: --> <circle cx="2300" cy="1420" r="25" stroke="red" stroke-width="2" stroke-dasharray="3" fill="none" /><polyline points="2275,1395 2325,1395 2325,1445 2275,1445 2275,1395" stroke="silver" fill="none" stroke-dasharray="3"/><polyline points="2275,1395 2325,1445" stroke="silver" fill="none" stroke-dasharray="3"/><polyline points="2325,1395 2275,1445" stroke="silver" fill="none" stroke-dasharray="3"/><polyline points="2275,1400 2275,1395 2280,1395" stroke="black" fill="none"/><polyline points="2325,1400 2325,1395 2320,1395" stroke="black" fill="none"/><polyline points="2325,1440 2325,1445 2320,1445" stroke="black" fill="none"/><polyline points="2275,1440 2275,1445 2280,1445" stroke="black" fill="none"/><polyline points="2295,1395 2305,1395" stroke="black" fill="none"/><polyline points="2295,1445 2305,1445" stroke="black" fill="none"/><polyline points="2275,1415 2275,1425" stroke="black" fill="none"/><polyline points="2325,1415 2325,1425" stroke="black" fill="none"/><polyline points="2295,1420 2305,1420" stroke="black" fill="none"/><polyline points="2300,1415 2300,1425" stroke="black" fill="none"/>
      <!-- X2 O : Haymarket -->
<!-- Junction: --> <polyline points="2700,1420 2700,1395" stroke="green" fill="none" stroke-width="20" stroke-linecap="butt"/>
<!-- Label: --> <text x="2700" y="1340" font-family="Fira Sans Condensed" dominant-baseline="hanging" text-anchor="middle" font-size="50px">Haymarket</text>
<!-- Cell: --> <circle cx="2700" cy="1420" r="25" stroke="red" stroke-width="2" stroke-dasharray="3" fill="none" /><polyline points="2675,1395 2725,1395 2725,1445 2675,1445 2675,1395" stroke="silver" fill="none" stroke-dasharray="3"/><polyline points="2675,1395 2725,1445" stroke="silver" fill="none" stroke-dasharray="3"/><polyline points="2725,1395 2675,1445" stroke="silver" fill="none" stroke-dasharray="3"/><polyline points="2675,1400 2675,1395 2680,1395" stroke="black" fill="none"/><polyline points="2725,1400 2725,1395 2720,1395" stroke="black" fill="none"/><polyline points="2725,1440 2725,1445 2720,1445" stroke="black" fill="none"/><polyline points="2675,1440 2675,1445 2680,1445" stroke="black" fill="none"/><polyline points="2695,1395 2705,1395" stroke="black" fill="none"/><polyline points="2695,1445 2705,1445" stroke="black" fill="none"/><polyline points="2675,1415 2675,1425" stroke="black" fill="none"/><polyline points="2725,1415 2725,1425" stroke="black" fill="none"/><polyline points="2695,1420 2705,1420" stroke="black" fill="none"/><polyline points="2700,1415 2700,1425" stroke="black" fill="none"/>
      <!-- X2 Oa :  -->
<!-- Cell: --> <circle cx="3220" cy="1345" r="25" stroke="red" stroke-width="2" stroke-dasharray="3" fill="none" /><polyline points="3195,1325 3195,1320 3200,1320" stroke="black" fill="none"/><polyline points="3245,1325 3245,1320 3240,1320" stroke="black" fill="none"/><polyline points="3245,1365 3245,1370 3240,1370" stroke="black" fill="none"/><polyline points="3195,1365 3195,1370 3200,1370" stroke="black" fill="none"/><polyline points="3215,1320 3225,1320" stroke="black" fill="none"/><polyline points="3215,1370 3225,1370" stroke="black" fill="none"/><polyline points="3195,1340 3195,1350" stroke="black" fill="none"/><polyline points="3245,1340 3245,1350" stroke="black" fill="none"/><polyline points="3215,1345 3225,1345" stroke="black" fill="none"/><polyline points="3220,1340 3220,1350" stroke="black" fill="none"/>
      <!-- X2 P :  -->
<!-- Junction: --> <polyline points="3300,1270 3300,1245" stroke="green" fill="none" stroke-width="20" stroke-linecap="butt"/>
<!-- Cell: --> <circle cx="3300" cy="1270" r="25" stroke="red" stroke-width="2" stroke-dasharray="3" fill="none" /><polyline points="3275,1245 3325,1245 3325,1295 3275,1295 3275,1245" stroke="silver" fill="none" stroke-dasharray="3"/><polyline points="3275,1245 3325,1295" stroke="silver" fill="none" stroke-dasharray="3"/><polyline points="3325,1245 3275,1295" stroke="silver" fill="none" stroke-dasharray="3"/><polyline points="3275,1250 3275,1245 3280,1245" stroke="black" fill="none"/><polyline points="3325,1250 3325,1245 3320,1245" stroke="black" fill="none"/><polyline points="3325,1290 3325,1295 3320,1295" stroke="black" fill="none"/><polyline points="3275,1290 3275,1295 3280,1295" stroke="black" fill="none"/><polyline points="3295,1245 3305,1245" stroke="black" fill="none"/><polyline points="3295,1295 3305,1295" stroke="black" fill="none"/><polyline points="3275,1265 3275,1275" stroke="black" fill="none"/><polyline points="3325,1265 3325,1275" stroke="black" fill="none"/><polyline points="3295,1270 3305,1270" stroke="black" fill="none"/><polyline points="3300,1265 3300,1275" stroke="black" fill="none"/>
      <!-- X2 Q :  -->
<!-- Terminator: --> <rect x="3490" y="1245" width="20" height="50" fill="green" />
<!-- Cell: --> <circle cx="3500" cy="1270" r="25" stroke="red" stroke-width="2" stroke-dasharray="3" fill="none" /><polyline points="3475,1245 3525,1245 3525,1295 3475,1295 3475,1245" stroke="silver" fill="none" stroke-dasharray="3"/><polyline points="3475,1245 3525,1295" stroke="silver" fill="none" stroke-dasharray="3"/><polyline points="3525,1245 3475,1295" stroke="silver" fill="none" stroke-dasharray="3"/><polyline points="3475,1250 3475,1245 3480,1245" stroke="black" fill="none"/><polyline points="3525,1250 3525,1245 3520,1245" stroke="black" fill="none"/><polyline points="3525,1290 3525,1295 3520,1295" stroke="black" fill="none"/><polyline points="3475,1290 3475,1295 3480,1295" stroke="black" fill="none"/><polyline points="3495,1245 3505,1245" stroke="black" fill="none"/><polyline points="3495,1295 3505,1295" stroke="black" fill="none"/><polyline points="3475,1265 3475,1275" stroke="black" fill="none"/><polyline points="3525,1265 3525,1275" stroke="black" fill="none"/><polyline points="3495,1270 3505,1270" stroke="black" fill="none"/><polyline points="3500,1265 3500,1275" stroke="black" fill="none"/>

</svg>