

<svg version="1.1"
     baseProfile="full"
     width="4400" height="1920"
     xmlns="http://www.w3.org/2000/svg">
  <style>
    @font-face {
        font-family: "Fira Sans Condensed";
        src: url("https://fonts.googleapis.com/css?family=Fira+Sans+Condensed&amp;display=swap");
    }
  </style>

  <!-- Background -->
  <defs>
    <linearGradient id="BackgroundGradient" x1="0" y1="0" x2="100%" y2="100%">
      <stop offset="0%" stop-color="white"/>
      <stop offset="100%" stop-color="cornsilk"/>
    </linearGradient>
  </defs>
  <rect width="100%" height="100%" fill="url(#BackgroundGradient)"/>

  <!-- Information -->
<g font-family="Fira Sans Condensed" font-size="20px">
<text x="20" y="530">Version 1.0-preview</text>
<text x="20" y="555">This is not meant to represent an accurate route map of Lothian Country.</text>
<text x="20" y="580">© 2019 Colin Angus Mackay. https://github.com/colinangusmackay/scotland-travel-routes/blob/master/LICENSE</text>
<text x="20" y="605">Report issues to: https://github.com/colinangusmackay/scotland-travel-routes/issues</text>
</g>

    <!-- Legend for 43 : Queensferry - Edinburgh -->
<rect x="10" y="100" fill="crimson" height="200" width="3500" stroke="white" stroke-width="1"/>
<g text-anchor="start" font-size="180px" dominant-baseline="hanging" fill="white" font-family="Fira Sans Condensed">
<text x="60" y="110" font-weight="bold">43</text>
<text x="610" y="110">Queensferry - Edinburgh</text>
</g>

      <!-- 43 A : Queensferry -->
      <!-- Connector: --> 
      <!-- 43 B : Ferrymuir Retail Park -->
      <!-- Connector: --> <path d="M1500,1000 L1200,1000" stroke="crimson" fill="none" stroke-width="20" stroke-linecap="round" stroke-linejoin="round"/>
      <!-- 43 C : Echline Corner -->
      <!-- Connector: --> <path d="M1200,1000 L1175,1000 L950,1000 A50 50 0 0 1 900,950 L900,850" stroke="crimson" fill="none" stroke-width="20" stroke-linecap="round" stroke-linejoin="round"/>
      <!-- 43 D : Queensferry Police Station -->
      <!-- Connector: --> <path d="M900,850 L900,825 L900,750 A50 50 0 0 1 950,700 L1300,700" stroke="crimson" fill="none" stroke-width="20" stroke-linecap="round" stroke-linejoin="round"/>
      <!-- 43 E : Dalmany -->
      <!-- Connector: --> <path d="M1300,700 L1700,700" stroke="crimson" fill="none" stroke-width="20" stroke-linecap="round" stroke-linejoin="round"/>
      <!-- 43 F : Barnbougle Gate Lodge -->
      <!-- Connector: --> <path d="M1700,700 L1725,700 L1764.6446609406726,700 A50 50 0 0 1 1800,714.6446609406727 L1982.3223304703363,882.3223304703363 L2000,900" stroke="crimson" fill="none" stroke-width="20" stroke-linecap="round" stroke-linejoin="round"/>
      <!-- 43 G : Burnshot -->
      <!-- Connector: --> <path d="M2000,900 L2100,1000" stroke="crimson" fill="none" stroke-width="20" stroke-linecap="round" stroke-linejoin="round"/>
      <!-- 43 H : Crammond Bridge -->
      <!-- Connector: --> <path d="M2100,1000 L2200,1100" stroke="crimson" fill="none" stroke-width="20" stroke-linecap="round" stroke-linejoin="round"/>
      <!-- 43 I : Barnton -->
      <!-- Connector: --> <path d="M2200,1100 L2285.3553390593274,1185.3553390593274 A50 50 0 0 0 2314.6446609406726,1200 L2375,1200 L2400,1200" stroke="crimson" fill="none" stroke-width="20" stroke-linecap="round" stroke-linejoin="round"/>
      <!-- 43 J : Clermiston Rd N -->
      <!-- Connector: --> <path d="M2400,1200 L2600,1200" stroke="crimson" fill="none" stroke-width="20" stroke-linecap="round" stroke-linejoin="round"/>
      <!-- 43 K : Blackhall -->
      <!-- Connector: --> <path d="M2600,1200 L2800,1200" stroke="crimson" fill="none" stroke-width="20" stroke-linecap="round" stroke-linejoin="round"/>
      <!-- 43 L : Craigleith -->
      <!-- Connector: --> <path d="M2800,1200 L2825,1200 L2864.644660940673,1200 A50 50 0 0 1 2900.0000000000005,1214.6446609406726 L2982.3223304703365,1282.3223304703363 L3000,1300" stroke="crimson" fill="none" stroke-width="20" stroke-linecap="round" stroke-linejoin="round"/>
      <!-- 43 M : Stewart&#x27;s Melville -->
      <!-- Connector: --> <path d="M3000,1300 L3085.3553390593274,1385.3553390593274 A50 50 0 0 0 3114.6446609406726,1400 L3275,1400 L3300,1400" stroke="crimson" fill="none" stroke-width="20" stroke-linecap="round" stroke-linejoin="round"/>
      <!-- 43 N : Dean Bridge -->
      <!-- Connector: --> <path d="M3300,1400 L3325,1400 L3350,1400 A50 50 0 0 1 3400,1450 L3400,1500" stroke="crimson" fill="none" stroke-width="20" stroke-linecap="round" stroke-linejoin="round"/>
      <!-- 43 O : West End -->
      <!-- Connector: --> <path d="M3400,1500 L3400,1525 L3400,1650 A50 50 0 0 0 3450,1700 L3550,1700" stroke="crimson" fill="none" stroke-width="20" stroke-linecap="round" stroke-linejoin="round"/>
      <!-- 43 Oa :  -->
      <!-- Connector: --> <path d="M3550,1700 L3575,1700 L3650,1700 A50 50 0 0 0 3700,1650 L3700,1625" stroke="crimson" fill="none" stroke-width="20" stroke-linecap="round" stroke-linejoin="round"/>
      <!-- 43 P : George Street -->
      <!-- Connector: --> <path d="M3700,1625 L3700,1600 L3700,1600 A50 50 0 0 1 3750,1550 L3800,1550" stroke="crimson" fill="none" stroke-width="20" stroke-linecap="round" stroke-linejoin="round"/>
      <!-- 43 Q : St. Andrew Sq -->
      <!-- Connector: --> <path d="M3800,1550 L4000,1550" stroke="crimson" fill="none" stroke-width="20" stroke-linecap="round" stroke-linejoin="round"/>

      <!-- 43 A : Queensferry -->
<!-- Terminator: --> <rect x="1490" y="975" width="20" height="50" fill="crimson" /><text x="1520" y="1000" dominant-baseline="middle" font-family="Fira Sans Condensed" font-size="50px">43</text>
<!-- Label: --> <text x="1500" y="1030" font-family="Fira Sans Condensed" dominant-baseline="hanging" text-anchor="middle" font-size="50px">Queensferry</text>
<!-- Cell: --> <circle cx="1500" cy="1000" r="25" stroke="red" stroke-width="2" stroke-dasharray="3" fill="none" /><polyline points="1475,975 1525,975 1525,1025 1475,1025 1475,975" stroke="silver" fill="none" stroke-dasharray="3"/><polyline points="1475,975 1525,1025" stroke="silver" fill="none" stroke-dasharray="3"/><polyline points="1525,975 1475,1025" stroke="silver" fill="none" stroke-dasharray="3"/><polyline points="1475,980 1475,975 1480,975" stroke="black" fill="none"/><polyline points="1525,980 1525,975 1520,975" stroke="black" fill="none"/><polyline points="1525,1020 1525,1025 1520,1025" stroke="black" fill="none"/><polyline points="1475,1020 1475,1025 1480,1025" stroke="black" fill="none"/><polyline points="1495,975 1505,975" stroke="black" fill="none"/><polyline points="1495,1025 1505,1025" stroke="black" fill="none"/><polyline points="1475,995 1475,1005" stroke="black" fill="none"/><polyline points="1525,995 1525,1005" stroke="black" fill="none"/><polyline points="1495,1000 1505,1000" stroke="black" fill="none"/><polyline points="1500,995 1500,1005" stroke="black" fill="none"/>
      <!-- 43 B : Ferrymuir Retail Park -->
<!-- Junction: --> <polyline points="1200,1000 1200,975" stroke="crimson" fill="none" stroke-width="20" stroke-linecap="butt"/>
<!-- Label: --> <text x="1200" y="920" font-family="Fira Sans Condensed" dominant-baseline="hanging" text-anchor="middle" font-size="50px">Ferrymuir Retail Park</text>
<!-- Cell: --> <circle cx="1200" cy="1000" r="25" stroke="red" stroke-width="2" stroke-dasharray="3" fill="none" /><polyline points="1175,975 1225,975 1225,1025 1175,1025 1175,975" stroke="silver" fill="none" stroke-dasharray="3"/><polyline points="1175,975 1225,1025" stroke="silver" fill="none" stroke-dasharray="3"/><polyline points="1225,975 1175,1025" stroke="silver" fill="none" stroke-dasharray="3"/><polyline points="1175,980 1175,975 1180,975" stroke="black" fill="none"/><polyline points="1225,980 1225,975 1220,975" stroke="black" fill="none"/><polyline points="1225,1020 1225,1025 1220,1025" stroke="black" fill="none"/><polyline points="1175,1020 1175,1025 1180,1025" stroke="black" fill="none"/><polyline points="1195,975 1205,975" stroke="black" fill="none"/><polyline points="1195,1025 1205,1025" stroke="black" fill="none"/><polyline points="1175,995 1175,1005" stroke="black" fill="none"/><polyline points="1225,995 1225,1005" stroke="black" fill="none"/><polyline points="1195,1000 1205,1000" stroke="black" fill="none"/><polyline points="1200,995 1200,1005" stroke="black" fill="none"/>
      <!-- 43 C : Echline Corner -->
<!-- Junction: --> <polyline points="900,850 875,850" stroke="crimson" fill="none" stroke-width="20" stroke-linecap="butt"/>
<!-- Label: --> <text x="870" y="825" font-family="Fira Sans Condensed" dominant-baseline="hanging" text-anchor="end" font-size="50px">Echline Corner</text>
<!-- Cell: --> <circle cx="900" cy="850" r="25" stroke="red" stroke-width="2" stroke-dasharray="3" fill="none" /><polyline points="875,830 875,825 880,825" stroke="black" fill="none"/><polyline points="925,830 925,825 920,825" stroke="black" fill="none"/><polyline points="925,870 925,875 920,875" stroke="black" fill="none"/><polyline points="875,870 875,875 880,875" stroke="black" fill="none"/><polyline points="895,825 905,825" stroke="black" fill="none"/><polyline points="895,875 905,875" stroke="black" fill="none"/><polyline points="875,845 875,855" stroke="black" fill="none"/><polyline points="925,845 925,855" stroke="black" fill="none"/><polyline points="895,850 905,850" stroke="black" fill="none"/><polyline points="900,845 900,855" stroke="black" fill="none"/>
      <!-- 43 D : Queensferry Police Station -->
<!-- Junction: --> <polyline points="1300,700 1300,725" stroke="crimson" fill="none" stroke-width="20" stroke-linecap="butt"/>
<!-- Label: --> <text x="1300" y="730" font-family="Fira Sans Condensed" dominant-baseline="hanging" text-anchor="middle" font-size="50px">Queensferry Police Station</text>
<!-- Cell: --> <circle cx="1300" cy="700" r="25" stroke="red" stroke-width="2" stroke-dasharray="3" fill="none" /><polyline points="1275,675 1325,675 1325,725 1275,725 1275,675" stroke="silver" fill="none" stroke-dasharray="3"/><polyline points="1275,675 1325,725" stroke="silver" fill="none" stroke-dasharray="3"/><polyline points="1325,675 1275,725" stroke="silver" fill="none" stroke-dasharray="3"/><polyline points="1275,680 1275,675 1280,675" stroke="black" fill="none"/><polyline points="1325,680 1325,675 1320,675" stroke="black" fill="none"/><polyline points="1325,720 1325,725 1320,725" stroke="black" fill="none"/><polyline points="1275,720 1275,725 1280,725" stroke="black" fill="none"/><polyline points="1295,675 1305,675" stroke="black" fill="none"/><polyline points="1295,725 1305,725" stroke="black" fill="none"/><polyline points="1275,695 1275,705" stroke="black" fill="none"/><polyline points="1325,695 1325,705" stroke="black" fill="none"/><polyline points="1295,700 1305,700" stroke="black" fill="none"/><polyline points="1300,695 1300,705" stroke="black" fill="none"/>
      <!-- 43 E : Dalmany -->
<!-- Junction: --> <polyline points="1700,700 1700,675" stroke="crimson" fill="none" stroke-width="20" stroke-linecap="butt"/>
<!-- Label: --> <text x="1700" y="620" font-family="Fira Sans Condensed" dominant-baseline="hanging" text-anchor="middle" font-size="50px">Dalmany</text>
<!-- Cell: --> <circle cx="1700" cy="700" r="25" stroke="red" stroke-width="2" stroke-dasharray="3" fill="none" /><polyline points="1675,675 1725,675 1725,725 1675,725 1675,675" stroke="silver" fill="none" stroke-dasharray="3"/><polyline points="1675,675 1725,725" stroke="silver" fill="none" stroke-dasharray="3"/><polyline points="1725,675 1675,725" stroke="silver" fill="none" stroke-dasharray="3"/><polyline points="1675,680 1675,675 1680,675" stroke="black" fill="none"/><polyline points="1725,680 1725,675 1720,675" stroke="black" fill="none"/><polyline points="1725,720 1725,725 1720,725" stroke="black" fill="none"/><polyline points="1675,720 1675,725 1680,725" stroke="black" fill="none"/><polyline points="1695,675 1705,675" stroke="black" fill="none"/><polyline points="1695,725 1705,725" stroke="black" fill="none"/><polyline points="1675,695 1675,705" stroke="black" fill="none"/><polyline points="1725,695 1725,705" stroke="black" fill="none"/><polyline points="1695,700 1705,700" stroke="black" fill="none"/><polyline points="1700,695 1700,705" stroke="black" fill="none"/>
      <!-- 43 F : Barnbougle Gate Lodge -->
<!-- Junction: --> <polyline points="2000,900 2017.6776695296637,882.3223304703363" stroke="crimson" fill="none" stroke-width="20" stroke-linecap="butt"/>
<!-- Label: --> <text x="2030" y="820" font-family="Fira Sans Condensed" dominant-baseline="hanging" text-anchor="start" font-size="50px">Barnbougle Gate Lodge</text>
<!-- Cell: --> <circle cx="2000" cy="900" r="25" stroke="red" stroke-width="2" stroke-dasharray="3" fill="none" />
      <!-- 43 G : Burnshot -->
<!-- Junction: --> <polyline points="2100,1000 2117.6776695296635,982.3223304703363" stroke="crimson" fill="none" stroke-width="20" stroke-linecap="butt"/>
<!-- Label: --> <text x="2130" y="920" font-family="Fira Sans Condensed" dominant-baseline="hanging" text-anchor="start" font-size="50px">Burnshot</text>
<!-- Cell: --> <circle cx="2100" cy="1000" r="25" stroke="red" stroke-width="2" stroke-dasharray="3" fill="none" />
      <!-- 43 H : Crammond Bridge -->
<!-- Junction: --> <polyline points="2200,1100 2217.6776695296635,1082.3223304703363" stroke="crimson" fill="none" stroke-width="20" stroke-linecap="butt"/>
<!-- Label: --> <text x="2230" y="1020" font-family="Fira Sans Condensed" dominant-baseline="hanging" text-anchor="start" font-size="50px">Crammond Bridge</text>
<!-- Cell: --> <circle cx="2200" cy="1100" r="25" stroke="red" stroke-width="2" stroke-dasharray="3" fill="none" />
      <!-- 43 I : Barnton -->
<!-- Junction: --> <polyline points="2400,1200 2400,1175" stroke="crimson" fill="none" stroke-width="20" stroke-linecap="butt"/>
<!-- Label: --> <text x="2400" y="1120" font-family="Fira Sans Condensed" dominant-baseline="hanging" text-anchor="middle" font-size="50px">Barnton</text>
<!-- Cell: --> <circle cx="2400" cy="1200" r="25" stroke="red" stroke-width="2" stroke-dasharray="3" fill="none" /><polyline points="2375,1175 2425,1175 2425,1225 2375,1225 2375,1175" stroke="silver" fill="none" stroke-dasharray="3"/><polyline points="2375,1175 2425,1225" stroke="silver" fill="none" stroke-dasharray="3"/><polyline points="2425,1175 2375,1225" stroke="silver" fill="none" stroke-dasharray="3"/><polyline points="2375,1180 2375,1175 2380,1175" stroke="black" fill="none"/><polyline points="2425,1180 2425,1175 2420,1175" stroke="black" fill="none"/><polyline points="2425,1220 2425,1225 2420,1225" stroke="black" fill="none"/><polyline points="2375,1220 2375,1225 2380,1225" stroke="black" fill="none"/><polyline points="2395,1175 2405,1175" stroke="black" fill="none"/><polyline points="2395,1225 2405,1225" stroke="black" fill="none"/><polyline points="2375,1195 2375,1205" stroke="black" fill="none"/><polyline points="2425,1195 2425,1205" stroke="black" fill="none"/><polyline points="2395,1200 2405,1200" stroke="black" fill="none"/><polyline points="2400,1195 2400,1205" stroke="black" fill="none"/>
      <!-- 43 J : Clermiston Rd N -->
<!-- Junction: --> <polyline points="2600,1200 2600,1225" stroke="crimson" fill="none" stroke-width="20" stroke-linecap="butt"/>
<!-- Label: --> <text x="2600" y="1230" font-family="Fira Sans Condensed" dominant-baseline="hanging" text-anchor="middle" font-size="50px">Clermiston Rd N</text>
<!-- Cell: --> <circle cx="2600" cy="1200" r="25" stroke="red" stroke-width="2" stroke-dasharray="3" fill="none" /><polyline points="2575,1175 2625,1175 2625,1225 2575,1225 2575,1175" stroke="silver" fill="none" stroke-dasharray="3"/><polyline points="2575,1175 2625,1225" stroke="silver" fill="none" stroke-dasharray="3"/><polyline points="2625,1175 2575,1225" stroke="silver" fill="none" stroke-dasharray="3"/><polyline points="2575,1180 2575,1175 2580,1175" stroke="black" fill="none"/><polyline points="2625,1180 2625,1175 2620,1175" stroke="black" fill="none"/><polyline points="2625,1220 2625,1225 2620,1225" stroke="black" fill="none"/><polyline points="2575,1220 2575,1225 2580,1225" stroke="black" fill="none"/><polyline points="2595,1175 2605,1175" stroke="black" fill="none"/><polyline points="2595,1225 2605,1225" stroke="black" fill="none"/><polyline points="2575,1195 2575,1205" stroke="black" fill="none"/><polyline points="2625,1195 2625,1205" stroke="black" fill="none"/><polyline points="2595,1200 2605,1200" stroke="black" fill="none"/><polyline points="2600,1195 2600,1205" stroke="black" fill="none"/>
      <!-- 43 K : Blackhall -->
<!-- Junction: --> <polyline points="2800,1200 2800,1175" stroke="crimson" fill="none" stroke-width="20" stroke-linecap="butt"/>
<!-- Label: --> <text x="2800" y="1120" font-family="Fira Sans Condensed" dominant-baseline="hanging" text-anchor="middle" font-size="50px">Blackhall</text>
<!-- Cell: --> <circle cx="2800" cy="1200" r="25" stroke="red" stroke-width="2" stroke-dasharray="3" fill="none" /><polyline points="2775,1175 2825,1175 2825,1225 2775,1225 2775,1175" stroke="silver" fill="none" stroke-dasharray="3"/><polyline points="2775,1175 2825,1225" stroke="silver" fill="none" stroke-dasharray="3"/><polyline points="2825,1175 2775,1225" stroke="silver" fill="none" stroke-dasharray="3"/><polyline points="2775,1180 2775,1175 2780,1175" stroke="black" fill="none"/><polyline points="2825,1180 2825,1175 2820,1175" stroke="black" fill="none"/><polyline points="2825,1220 2825,1225 2820,1225" stroke="black" fill="none"/><polyline points="2775,1220 2775,1225 2780,1225" stroke="black" fill="none"/><polyline points="2795,1175 2805,1175" stroke="black" fill="none"/><polyline points="2795,1225 2805,1225" stroke="black" fill="none"/><polyline points="2775,1195 2775,1205" stroke="black" fill="none"/><polyline points="2825,1195 2825,1205" stroke="black" fill="none"/><polyline points="2795,1200 2805,1200" stroke="black" fill="none"/><polyline points="2800,1195 2800,1205" stroke="black" fill="none"/>
      <!-- 43 L : Craigleith -->
<!-- Junction: --> <polyline points="3000,1300 3017.6776695296635,1282.3223304703363" stroke="crimson" fill="none" stroke-width="20" stroke-linecap="butt"/>
<!-- Label: --> <text x="3030" y="1220" font-family="Fira Sans Condensed" dominant-baseline="hanging" text-anchor="start" font-size="50px">Craigleith</text>
<!-- Cell: --> <circle cx="3000" cy="1300" r="25" stroke="red" stroke-width="2" stroke-dasharray="3" fill="none" />
      <!-- 43 M : Stewart&#x27;s Melville -->
<!-- Junction: --> <polyline points="3300,1400 3300,1375" stroke="crimson" fill="none" stroke-width="20" stroke-linecap="butt"/>
<!-- Label: --> <text x="3300" y="1320" font-family="Fira Sans Condensed" dominant-baseline="hanging" text-anchor="middle" font-size="50px">Stewart's Melville</text>
<!-- Cell: --> <circle cx="3300" cy="1400" r="25" stroke="red" stroke-width="2" stroke-dasharray="3" fill="none" /><polyline points="3275,1375 3325,1375 3325,1425 3275,1425 3275,1375" stroke="silver" fill="none" stroke-dasharray="3"/><polyline points="3275,1375 3325,1425" stroke="silver" fill="none" stroke-dasharray="3"/><polyline points="3325,1375 3275,1425" stroke="silver" fill="none" stroke-dasharray="3"/><polyline points="3275,1380 3275,1375 3280,1375" stroke="black" fill="none"/><polyline points="3325,1380 3325,1375 3320,1375" stroke="black" fill="none"/><polyline points="3325,1420 3325,1425 3320,1425" stroke="black" fill="none"/><polyline points="3275,1420 3275,1425 3280,1425" stroke="black" fill="none"/><polyline points="3295,1375 3305,1375" stroke="black" fill="none"/><polyline points="3295,1425 3305,1425" stroke="black" fill="none"/><polyline points="3275,1395 3275,1405" stroke="black" fill="none"/><polyline points="3325,1395 3325,1405" stroke="black" fill="none"/><polyline points="3295,1400 3305,1400" stroke="black" fill="none"/><polyline points="3300,1395 3300,1405" stroke="black" fill="none"/>
      <!-- 43 N : Dean Bridge -->
<!-- Junction: --> <polyline points="3400,1500 3375,1500" stroke="crimson" fill="none" stroke-width="20" stroke-linecap="butt"/>
<!-- Label: --> <text x="3370" y="1475" font-family="Fira Sans Condensed" dominant-baseline="hanging" text-anchor="end" font-size="50px">Dean Bridge</text>
<!-- Cell: --> <circle cx="3400" cy="1500" r="25" stroke="red" stroke-width="2" stroke-dasharray="3" fill="none" /><polyline points="3375,1480 3375,1475 3380,1475" stroke="black" fill="none"/><polyline points="3425,1480 3425,1475 3420,1475" stroke="black" fill="none"/><polyline points="3425,1520 3425,1525 3420,1525" stroke="black" fill="none"/><polyline points="3375,1520 3375,1525 3380,1525" stroke="black" fill="none"/><polyline points="3395,1475 3405,1475" stroke="black" fill="none"/><polyline points="3395,1525 3405,1525" stroke="black" fill="none"/><polyline points="3375,1495 3375,1505" stroke="black" fill="none"/><polyline points="3425,1495 3425,1505" stroke="black" fill="none"/><polyline points="3395,1500 3405,1500" stroke="black" fill="none"/><polyline points="3400,1495 3400,1505" stroke="black" fill="none"/>
      <!-- 43 O : West End -->
<!-- Junction: --> <polyline points="3550,1700 3550,1675" stroke="crimson" fill="none" stroke-width="20" stroke-linecap="butt"/>
<!-- Label: --> <text x="3550" y="1620" font-family="Fira Sans Condensed" dominant-baseline="hanging" text-anchor="middle" font-size="50px">West End</text>
<!-- Cell: --> <circle cx="3550" cy="1700" r="25" stroke="red" stroke-width="2" stroke-dasharray="3" fill="none" /><polyline points="3525,1675 3575,1675 3575,1725 3525,1725 3525,1675" stroke="silver" fill="none" stroke-dasharray="3"/><polyline points="3525,1675 3575,1725" stroke="silver" fill="none" stroke-dasharray="3"/><polyline points="3575,1675 3525,1725" stroke="silver" fill="none" stroke-dasharray="3"/><polyline points="3525,1680 3525,1675 3530,1675" stroke="black" fill="none"/><polyline points="3575,1680 3575,1675 3570,1675" stroke="black" fill="none"/><polyline points="3575,1720 3575,1725 3570,1725" stroke="black" fill="none"/><polyline points="3525,1720 3525,1725 3530,1725" stroke="black" fill="none"/><polyline points="3545,1675 3555,1675" stroke="black" fill="none"/><polyline points="3545,1725 3555,1725" stroke="black" fill="none"/><polyline points="3525,1695 3525,1705" stroke="black" fill="none"/><polyline points="3575,1695 3575,1705" stroke="black" fill="none"/><polyline points="3545,1700 3555,1700" stroke="black" fill="none"/><polyline points="3550,1695 3550,1705" stroke="black" fill="none"/>
      <!-- 43 Oa :  -->
<!-- Cell: --> <circle cx="3700" cy="1625" r="25" stroke="red" stroke-width="2" stroke-dasharray="3" fill="none" /><polyline points="3675,1605 3675,1600 3680,1600" stroke="black" fill="none"/><polyline points="3725,1605 3725,1600 3720,1600" stroke="black" fill="none"/><polyline points="3725,1645 3725,1650 3720,1650" stroke="black" fill="none"/><polyline points="3675,1645 3675,1650 3680,1650" stroke="black" fill="none"/><polyline points="3695,1600 3705,1600" stroke="black" fill="none"/><polyline points="3695,1650 3705,1650" stroke="black" fill="none"/><polyline points="3675,1620 3675,1630" stroke="black" fill="none"/><polyline points="3725,1620 3725,1630" stroke="black" fill="none"/><polyline points="3695,1625 3705,1625" stroke="black" fill="none"/><polyline points="3700,1620 3700,1630" stroke="black" fill="none"/>
      <!-- 43 P : George Street -->
<!-- Junction: --> <polyline points="3800,1550 3800,1525" stroke="crimson" fill="none" stroke-width="20" stroke-linecap="butt"/>
<!-- Label: --> <text x="3800" y="1470" font-family="Fira Sans Condensed" dominant-baseline="hanging" text-anchor="middle" font-size="50px">George Street</text>
<!-- Cell: --> <circle cx="3800" cy="1550" r="25" stroke="red" stroke-width="2" stroke-dasharray="3" fill="none" /><polyline points="3775,1525 3825,1525 3825,1575 3775,1575 3775,1525" stroke="silver" fill="none" stroke-dasharray="3"/><polyline points="3775,1525 3825,1575" stroke="silver" fill="none" stroke-dasharray="3"/><polyline points="3825,1525 3775,1575" stroke="silver" fill="none" stroke-dasharray="3"/><polyline points="3775,1530 3775,1525 3780,1525" stroke="black" fill="none"/><polyline points="3825,1530 3825,1525 3820,1525" stroke="black" fill="none"/><polyline points="3825,1570 3825,1575 3820,1575" stroke="black" fill="none"/><polyline points="3775,1570 3775,1575 3780,1575" stroke="black" fill="none"/><polyline points="3795,1525 3805,1525" stroke="black" fill="none"/><polyline points="3795,1575 3805,1575" stroke="black" fill="none"/><polyline points="3775,1545 3775,1555" stroke="black" fill="none"/><polyline points="3825,1545 3825,1555" stroke="black" fill="none"/><polyline points="3795,1550 3805,1550" stroke="black" fill="none"/><polyline points="3800,1545 3800,1555" stroke="black" fill="none"/>
      <!-- 43 Q : St. Andrew Sq -->
<!-- Terminator: --> <rect x="3990" y="1525" width="20" height="50" fill="crimson" />
<!-- Label: --> <text x="3980" y="1470" font-family="Fira Sans Condensed" dominant-baseline="hanging" text-anchor="start" font-size="50px">St. Andrew Sq</text>
<!-- Cell: --> <circle cx="4000" cy="1550" r="25" stroke="red" stroke-width="2" stroke-dasharray="3" fill="none" /><polyline points="3975,1525 4025,1525 4025,1575 3975,1575 3975,1525" stroke="silver" fill="none" stroke-dasharray="3"/><polyline points="3975,1525 4025,1575" stroke="silver" fill="none" stroke-dasharray="3"/><polyline points="4025,1525 3975,1575" stroke="silver" fill="none" stroke-dasharray="3"/><polyline points="3975,1530 3975,1525 3980,1525" stroke="black" fill="none"/><polyline points="4025,1530 4025,1525 4020,1525" stroke="black" fill="none"/><polyline points="4025,1570 4025,1575 4020,1575" stroke="black" fill="none"/><polyline points="3975,1570 3975,1575 3980,1575" stroke="black" fill="none"/><polyline points="3995,1525 4005,1525" stroke="black" fill="none"/><polyline points="3995,1575 4005,1575" stroke="black" fill="none"/><polyline points="3975,1545 3975,1555" stroke="black" fill="none"/><polyline points="4025,1545 4025,1555" stroke="black" fill="none"/><polyline points="3995,1550 4005,1550" stroke="black" fill="none"/><polyline points="4000,1545 4000,1555" stroke="black" fill="none"/>
    <!-- Legend for X2 : Green Arrow Express -->
<rect x="10" y="300" fill="green" height="200" width="3500" stroke="white" stroke-width="1"/>
<g text-anchor="start" font-size="180px" dominant-baseline="hanging" fill="white" font-family="Fira Sans Condensed">
<text x="60" y="310" font-weight="bold">X2</text>
<text x="610" y="310">Green Arrow Express</text>
</g>

      <!-- X2 K : Ratho Station -->
      <!-- Connector: --> 
      <!-- X2 L : Gogarburn -->
      <!-- Connector: --> <path d="M1700,1720 L2000,1720" stroke="green" fill="none" stroke-width="20" stroke-linecap="round" stroke-linejoin="round"/>
      <!-- X2 M : Maybury -->
      <!-- Connector: --> <path d="M2000,1720 L2300,1720" stroke="green" fill="none" stroke-width="20" stroke-linecap="round" stroke-linejoin="round"/>
      <!-- X2 N : Edinburgh Zoo -->
      <!-- Connector: --> <path d="M2300,1720 L2800,1720" stroke="green" fill="none" stroke-width="20" stroke-linecap="round" stroke-linejoin="round"/>
      <!-- X2 O : Haymarket -->
      <!-- Connector: --> <path d="M2800,1720 L3200,1720" stroke="green" fill="none" stroke-width="20" stroke-linecap="round" stroke-linejoin="round"/>
      <!-- X2 Oa :  -->
      <!-- Connector: --> <path d="M3200,1720 L3225,1720 L3670,1720 A50 50 0 0 0 3720,1670 L3720,1645" stroke="green" fill="none" stroke-width="20" stroke-linecap="round" stroke-linejoin="round"/>
      <!-- X2 P :  -->
      <!-- Connector: --> <path d="M3720,1645 L3720,1620 L3720,1620 A50 50 0 0 1 3770,1570 L3800,1570" stroke="green" fill="none" stroke-width="20" stroke-linecap="round" stroke-linejoin="round"/>
      <!-- X2 Q :  -->
      <!-- Connector: --> <path d="M3800,1570 L4000,1570" stroke="green" fill="none" stroke-width="20" stroke-linecap="round" stroke-linejoin="round"/>

      <!-- X2 K : Ratho Station -->
<!-- Junction: --> <polyline points="1700,1720 1700,1745" stroke="green" fill="none" stroke-width="20" stroke-linecap="butt"/>
<!-- Label: --> <text x="1700" y="1750" font-family="Fira Sans Condensed" dominant-baseline="hanging" text-anchor="middle" font-size="50px">Ratho Station</text>
<!-- Cell: --> <circle cx="1700" cy="1720" r="25" stroke="red" stroke-width="2" stroke-dasharray="3" fill="none" /><polyline points="1675,1695 1725,1695 1725,1745 1675,1745 1675,1695" stroke="silver" fill="none" stroke-dasharray="3"/><polyline points="1675,1695 1725,1745" stroke="silver" fill="none" stroke-dasharray="3"/><polyline points="1725,1695 1675,1745" stroke="silver" fill="none" stroke-dasharray="3"/><polyline points="1675,1700 1675,1695 1680,1695" stroke="black" fill="none"/><polyline points="1725,1700 1725,1695 1720,1695" stroke="black" fill="none"/><polyline points="1725,1740 1725,1745 1720,1745" stroke="black" fill="none"/><polyline points="1675,1740 1675,1745 1680,1745" stroke="black" fill="none"/><polyline points="1695,1695 1705,1695" stroke="black" fill="none"/><polyline points="1695,1745 1705,1745" stroke="black" fill="none"/><polyline points="1675,1715 1675,1725" stroke="black" fill="none"/><polyline points="1725,1715 1725,1725" stroke="black" fill="none"/><polyline points="1695,1720 1705,1720" stroke="black" fill="none"/><polyline points="1700,1715 1700,1725" stroke="black" fill="none"/>
      <!-- X2 L : Gogarburn -->
<!-- Junction: --> <polyline points="2000,1720 2000,1695" stroke="green" fill="none" stroke-width="20" stroke-linecap="butt"/>
<!-- Label: --> <text x="2000" y="1640" font-family="Fira Sans Condensed" dominant-baseline="hanging" text-anchor="middle" font-size="50px">Gogarburn</text>
<!-- Cell: --> <circle cx="2000" cy="1720" r="25" stroke="red" stroke-width="2" stroke-dasharray="3" fill="none" /><polyline points="1975,1695 2025,1695 2025,1745 1975,1745 1975,1695" stroke="silver" fill="none" stroke-dasharray="3"/><polyline points="1975,1695 2025,1745" stroke="silver" fill="none" stroke-dasharray="3"/><polyline points="2025,1695 1975,1745" stroke="silver" fill="none" stroke-dasharray="3"/><polyline points="1975,1700 1975,1695 1980,1695" stroke="black" fill="none"/><polyline points="2025,1700 2025,1695 2020,1695" stroke="black" fill="none"/><polyline points="2025,1740 2025,1745 2020,1745" stroke="black" fill="none"/><polyline points="1975,1740 1975,1745 1980,1745" stroke="black" fill="none"/><polyline points="1995,1695 2005,1695" stroke="black" fill="none"/><polyline points="1995,1745 2005,1745" stroke="black" fill="none"/><polyline points="1975,1715 1975,1725" stroke="black" fill="none"/><polyline points="2025,1715 2025,1725" stroke="black" fill="none"/><polyline points="1995,1720 2005,1720" stroke="black" fill="none"/><polyline points="2000,1715 2000,1725" stroke="black" fill="none"/>
      <!-- X2 M : Maybury -->
<!-- Junction: --> <polyline points="2300,1720 2300,1745" stroke="green" fill="none" stroke-width="20" stroke-linecap="butt"/>
<!-- Label: --> <text x="2300" y="1750" font-family="Fira Sans Condensed" dominant-baseline="hanging" text-anchor="middle" font-size="50px">Maybury</text>
<!-- Cell: --> <circle cx="2300" cy="1720" r="25" stroke="red" stroke-width="2" stroke-dasharray="3" fill="none" /><polyline points="2275,1695 2325,1695 2325,1745 2275,1745 2275,1695" stroke="silver" fill="none" stroke-dasharray="3"/><polyline points="2275,1695 2325,1745" stroke="silver" fill="none" stroke-dasharray="3"/><polyline points="2325,1695 2275,1745" stroke="silver" fill="none" stroke-dasharray="3"/><polyline points="2275,1700 2275,1695 2280,1695" stroke="black" fill="none"/><polyline points="2325,1700 2325,1695 2320,1695" stroke="black" fill="none"/><polyline points="2325,1740 2325,1745 2320,1745" stroke="black" fill="none"/><polyline points="2275,1740 2275,1745 2280,1745" stroke="black" fill="none"/><polyline points="2295,1695 2305,1695" stroke="black" fill="none"/><polyline points="2295,1745 2305,1745" stroke="black" fill="none"/><polyline points="2275,1715 2275,1725" stroke="black" fill="none"/><polyline points="2325,1715 2325,1725" stroke="black" fill="none"/><polyline points="2295,1720 2305,1720" stroke="black" fill="none"/><polyline points="2300,1715 2300,1725" stroke="black" fill="none"/>
      <!-- X2 N : Edinburgh Zoo -->
<!-- Junction: --> <polyline points="2800,1720 2800,1695" stroke="green" fill="none" stroke-width="20" stroke-linecap="butt"/>
<!-- Label: --> <text x="2800" y="1640" font-family="Fira Sans Condensed" dominant-baseline="hanging" text-anchor="middle" font-size="50px">Edinburgh Zoo</text>
<!-- Cell: --> <circle cx="2800" cy="1720" r="25" stroke="red" stroke-width="2" stroke-dasharray="3" fill="none" /><polyline points="2775,1695 2825,1695 2825,1745 2775,1745 2775,1695" stroke="silver" fill="none" stroke-dasharray="3"/><polyline points="2775,1695 2825,1745" stroke="silver" fill="none" stroke-dasharray="3"/><polyline points="2825,1695 2775,1745" stroke="silver" fill="none" stroke-dasharray="3"/><polyline points="2775,1700 2775,1695 2780,1695" stroke="black" fill="none"/><polyline points="2825,1700 2825,1695 2820,1695" stroke="black" fill="none"/><polyline points="2825,1740 2825,1745 2820,1745" stroke="black" fill="none"/><polyline points="2775,1740 2775,1745 2780,1745" stroke="black" fill="none"/><polyline points="2795,1695 2805,1695" stroke="black" fill="none"/><polyline points="2795,1745 2805,1745" stroke="black" fill="none"/><polyline points="2775,1715 2775,1725" stroke="black" fill="none"/><polyline points="2825,1715 2825,1725" stroke="black" fill="none"/><polyline points="2795,1720 2805,1720" stroke="black" fill="none"/><polyline points="2800,1715 2800,1725" stroke="black" fill="none"/>
      <!-- X2 O : Haymarket -->
<!-- Junction: --> <polyline points="3200,1720 3200,1695" stroke="green" fill="none" stroke-width="20" stroke-linecap="butt"/>
<!-- Label: --> <text x="3200" y="1640" font-family="Fira Sans Condensed" dominant-baseline="hanging" text-anchor="middle" font-size="50px">Haymarket</text>
<!-- Cell: --> <circle cx="3200" cy="1720" r="25" stroke="red" stroke-width="2" stroke-dasharray="3" fill="none" /><polyline points="3175,1695 3225,1695 3225,1745 3175,1745 3175,1695" stroke="silver" fill="none" stroke-dasharray="3"/><polyline points="3175,1695 3225,1745" stroke="silver" fill="none" stroke-dasharray="3"/><polyline points="3225,1695 3175,1745" stroke="silver" fill="none" stroke-dasharray="3"/><polyline points="3175,1700 3175,1695 3180,1695" stroke="black" fill="none"/><polyline points="3225,1700 3225,1695 3220,1695" stroke="black" fill="none"/><polyline points="3225,1740 3225,1745 3220,1745" stroke="black" fill="none"/><polyline points="3175,1740 3175,1745 3180,1745" stroke="black" fill="none"/><polyline points="3195,1695 3205,1695" stroke="black" fill="none"/><polyline points="3195,1745 3205,1745" stroke="black" fill="none"/><polyline points="3175,1715 3175,1725" stroke="black" fill="none"/><polyline points="3225,1715 3225,1725" stroke="black" fill="none"/><polyline points="3195,1720 3205,1720" stroke="black" fill="none"/><polyline points="3200,1715 3200,1725" stroke="black" fill="none"/>
      <!-- X2 Oa :  -->
<!-- Cell: --> <circle cx="3720" cy="1645" r="25" stroke="red" stroke-width="2" stroke-dasharray="3" fill="none" /><polyline points="3695,1625 3695,1620 3700,1620" stroke="black" fill="none"/><polyline points="3745,1625 3745,1620 3740,1620" stroke="black" fill="none"/><polyline points="3745,1665 3745,1670 3740,1670" stroke="black" fill="none"/><polyline points="3695,1665 3695,1670 3700,1670" stroke="black" fill="none"/><polyline points="3715,1620 3725,1620" stroke="black" fill="none"/><polyline points="3715,1670 3725,1670" stroke="black" fill="none"/><polyline points="3695,1640 3695,1650" stroke="black" fill="none"/><polyline points="3745,1640 3745,1650" stroke="black" fill="none"/><polyline points="3715,1645 3725,1645" stroke="black" fill="none"/><polyline points="3720,1640 3720,1650" stroke="black" fill="none"/>
      <!-- X2 P :  -->
<!-- Junction: --> <polyline points="3800,1570 3800,1545" stroke="green" fill="none" stroke-width="20" stroke-linecap="butt"/>
<!-- Cell: --> <circle cx="3800" cy="1570" r="25" stroke="red" stroke-width="2" stroke-dasharray="3" fill="none" /><polyline points="3775,1545 3825,1545 3825,1595 3775,1595 3775,1545" stroke="silver" fill="none" stroke-dasharray="3"/><polyline points="3775,1545 3825,1595" stroke="silver" fill="none" stroke-dasharray="3"/><polyline points="3825,1545 3775,1595" stroke="silver" fill="none" stroke-dasharray="3"/><polyline points="3775,1550 3775,1545 3780,1545" stroke="black" fill="none"/><polyline points="3825,1550 3825,1545 3820,1545" stroke="black" fill="none"/><polyline points="3825,1590 3825,1595 3820,1595" stroke="black" fill="none"/><polyline points="3775,1590 3775,1595 3780,1595" stroke="black" fill="none"/><polyline points="3795,1545 3805,1545" stroke="black" fill="none"/><polyline points="3795,1595 3805,1595" stroke="black" fill="none"/><polyline points="3775,1565 3775,1575" stroke="black" fill="none"/><polyline points="3825,1565 3825,1575" stroke="black" fill="none"/><polyline points="3795,1570 3805,1570" stroke="black" fill="none"/><polyline points="3800,1565 3800,1575" stroke="black" fill="none"/>
      <!-- X2 Q :  -->
<!-- Terminator: --> <rect x="3990" y="1545" width="20" height="50" fill="green" />
<!-- Cell: --> <circle cx="4000" cy="1570" r="25" stroke="red" stroke-width="2" stroke-dasharray="3" fill="none" /><polyline points="3975,1545 4025,1545 4025,1595 3975,1595 3975,1545" stroke="silver" fill="none" stroke-dasharray="3"/><polyline points="3975,1545 4025,1595" stroke="silver" fill="none" stroke-dasharray="3"/><polyline points="4025,1545 3975,1595" stroke="silver" fill="none" stroke-dasharray="3"/><polyline points="3975,1550 3975,1545 3980,1545" stroke="black" fill="none"/><polyline points="4025,1550 4025,1545 4020,1545" stroke="black" fill="none"/><polyline points="4025,1590 4025,1595 4020,1595" stroke="black" fill="none"/><polyline points="3975,1590 3975,1595 3980,1595" stroke="black" fill="none"/><polyline points="3995,1545 4005,1545" stroke="black" fill="none"/><polyline points="3995,1595 4005,1595" stroke="black" fill="none"/><polyline points="3975,1565 3975,1575" stroke="black" fill="none"/><polyline points="4025,1565 4025,1575" stroke="black" fill="none"/><polyline points="3995,1570 4005,1570" stroke="black" fill="none"/><polyline points="4000,1565 4000,1575" stroke="black" fill="none"/>

</svg>