<svg version="1.1"
     baseProfile="full"
     width="2000" height="1000"
     xmlns="http://www.w3.org/2000/svg">
  <style>
    @font-face {
        font-family: "Fira Sans Condensed";
        src: url("https://fonts.googleapis.com/css?family=Fira+Sans+Condensed&amp;display=swap");
    }
  </style>
    <!-- Background -->
    <rect width="100%" height="100%" fill="white" stroke="#dddddd"/>


      <!-- ↑→ Start : Start -->
      <!-- Connector: --> 
<!-- Terminator: --> <rect x="175" y="390" width="50" height="20" fill="blue" /><text x="200" y="425" text-anchor="middle" dominant-baseline="hanging" font-family="Fira Sans Condensed" font-size="50px">↑→</text>
      <!-- ↑→ End : End -->
      <!-- Connector: --> <path d="M200,400 L200,375 L200,325 A50 50 0 0 1 214.64466094067262,289.6446609406726 L289.6446609406726,214.64466094067262 A50 50 0 0 1 325,200 L575,200 L600,200" stroke="blue" fill="none" stroke-width="20" stroke-linecap="round" stroke-linejoin="round"/>
<!-- Terminator: --> <rect x="590" y="175" width="20" height="50" fill="blue" /><text x="620" y="200" dominant-baseline="middle" font-family="Fira Sans Condensed" font-size="50px">↑→</text>

      <!-- ↑→ Start : Start -->
<!-- Terminator: --> <rect x="175" y="390" width="50" height="20" fill="blue" /><text x="200" y="425" text-anchor="middle" dominant-baseline="hanging" font-family="Fira Sans Condensed" font-size="50px">↑→</text>
<!-- Label: --> <text x="230" y="375" font-family="Fira Sans Condensed" dominant-baseline="hanging" text-anchor="start" font-size="50px">Start</text>
<!-- Cell: --> <polyline points="175,380 175,375 180,375" stroke="black" fill="none"/><polyline points="225,380 225,375 220,375" stroke="black" fill="none"/><polyline points="225,420 225,425 220,425" stroke="black" fill="none"/><polyline points="175,420 175,425 180,425" stroke="black" fill="none"/><polyline points="195,375 205,375" stroke="black" fill="none"/><polyline points="195,425 205,425" stroke="black" fill="none"/><polyline points="175,395 175,405" stroke="black" fill="none"/><polyline points="225,395 225,405" stroke="black" fill="none"/><polyline points="195,400 205,400" stroke="black" fill="none"/><polyline points="200,395 200,405" stroke="black" fill="none"/>
      <!-- ↑→ End : End -->
<!-- Terminator: --> <rect x="590" y="175" width="20" height="50" fill="blue" /><text x="620" y="200" dominant-baseline="middle" font-family="Fira Sans Condensed" font-size="50px">↑→</text>
<!-- Label: --> <text x="600" y="230" font-family="Fira Sans Condensed" dominant-baseline="hanging" text-anchor="middle" font-size="50px">End</text>
<!-- Cell: --> <polyline points="575,175 625,175 625,225 575,225 575,175" stroke="silver" fill="none" stroke-dasharray="3"/><polyline points="575,175 625,225" stroke="silver" fill="none" stroke-dasharray="3"/><polyline points="625,175 575,225" stroke="silver" fill="none" stroke-dasharray="3"/><polyline points="575,180 575,175 580,175" stroke="black" fill="none"/><polyline points="625,180 625,175 620,175" stroke="black" fill="none"/><polyline points="625,220 625,225 620,225" stroke="black" fill="none"/><polyline points="575,220 575,225 580,225" stroke="black" fill="none"/><polyline points="595,175 605,175" stroke="black" fill="none"/><polyline points="595,225 605,225" stroke="black" fill="none"/><polyline points="575,195 575,205" stroke="black" fill="none"/><polyline points="625,195 625,205" stroke="black" fill="none"/><polyline points="595,200 605,200" stroke="black" fill="none"/><polyline points="600,195 600,205" stroke="black" fill="none"/>

      <!-- → Start : Start -->
      <!-- Connector: --> 
<!-- Terminator: --> <rect x="890" y="175" width="20" height="50" fill="red" /><text x="880" y="200" text-anchor="end" dominant-baseline="middle" font-family="Fira Sans Condensed" font-size="50px">→</text>
      <!-- → End : End -->
      <!-- Connector: --> <path d="M900,200 L925,200 C975,200 1025,100 1075,100  L1100,100" stroke="red" fill="none" stroke-width="20" stroke-linecap="round" stroke-linejoin="round"/>
<!-- Terminator: --> <rect x="1090" y="75" width="20" height="50" fill="red" /><text x="1120" y="100" dominant-baseline="middle" font-family="Fira Sans Condensed" font-size="50px">→</text>

      <!-- → Start : Start -->
<!-- Terminator: --> <rect x="890" y="175" width="20" height="50" fill="red" /><text x="880" y="200" text-anchor="end" dominant-baseline="middle" font-family="Fira Sans Condensed" font-size="50px">→</text>
<!-- Label: --> <text x="900" y="230" font-family="Fira Sans Condensed" dominant-baseline="hanging" text-anchor="middle" font-size="50px">Start</text>
<!-- Cell: --> <polyline points="875,175 925,175 925,225 875,225 875,175" stroke="silver" fill="none" stroke-dasharray="3"/><polyline points="875,175 925,225" stroke="silver" fill="none" stroke-dasharray="3"/><polyline points="925,175 875,225" stroke="silver" fill="none" stroke-dasharray="3"/><polyline points="875,180 875,175 880,175" stroke="black" fill="none"/><polyline points="925,180 925,175 920,175" stroke="black" fill="none"/><polyline points="925,220 925,225 920,225" stroke="black" fill="none"/><polyline points="875,220 875,225 880,225" stroke="black" fill="none"/><polyline points="895,175 905,175" stroke="black" fill="none"/><polyline points="895,225 905,225" stroke="black" fill="none"/><polyline points="875,195 875,205" stroke="black" fill="none"/><polyline points="925,195 925,205" stroke="black" fill="none"/><polyline points="895,200 905,200" stroke="black" fill="none"/><polyline points="900,195 900,205" stroke="black" fill="none"/>
      <!-- → End : End -->
<!-- Terminator: --> <rect x="1090" y="75" width="20" height="50" fill="red" /><text x="1120" y="100" dominant-baseline="middle" font-family="Fira Sans Condensed" font-size="50px">→</text>
<!-- Label: --> <text x="1100" y="130" font-family="Fira Sans Condensed" dominant-baseline="hanging" text-anchor="middle" font-size="50px">End</text>
<!-- Cell: --> <polyline points="1075,75 1125,75 1125,125 1075,125 1075,75" stroke="silver" fill="none" stroke-dasharray="3"/><polyline points="1075,75 1125,125" stroke="silver" fill="none" stroke-dasharray="3"/><polyline points="1125,75 1075,125" stroke="silver" fill="none" stroke-dasharray="3"/><polyline points="1075,80 1075,75 1080,75" stroke="black" fill="none"/><polyline points="1125,80 1125,75 1120,75" stroke="black" fill="none"/><polyline points="1125,120 1125,125 1120,125" stroke="black" fill="none"/><polyline points="1075,120 1075,125 1080,125" stroke="black" fill="none"/><polyline points="1095,75 1105,75" stroke="black" fill="none"/><polyline points="1095,125 1105,125" stroke="black" fill="none"/><polyline points="1075,95 1075,105" stroke="black" fill="none"/><polyline points="1125,95 1125,105" stroke="black" fill="none"/><polyline points="1095,100 1105,100" stroke="black" fill="none"/><polyline points="1100,95 1100,105" stroke="black" fill="none"/>

      <!-- → Start : Start -->
      <!-- Connector: --> 
<!-- Terminator: --> <rect x="1490" y="175" width="20" height="50" fill="darkGreen" /><text x="1480" y="200" text-anchor="end" dominant-baseline="middle" font-family="Fira Sans Condensed" font-size="50px">→</text>
      <!-- → End : End -->
      <!-- Connector: --> <path d="M1500,200 L1525,200 C1575,200 1625,300 1675,300  L1700,300" stroke="darkGreen" fill="none" stroke-width="20" stroke-linecap="round" stroke-linejoin="round"/>
<!-- Terminator: --> <rect x="1690" y="275" width="20" height="50" fill="darkGreen" /><text x="1720" y="300" dominant-baseline="middle" font-family="Fira Sans Condensed" font-size="50px">→</text>

      <!-- → Start : Start -->
<!-- Terminator: --> <rect x="1490" y="175" width="20" height="50" fill="darkGreen" /><text x="1480" y="200" text-anchor="end" dominant-baseline="middle" font-family="Fira Sans Condensed" font-size="50px">→</text>
<!-- Label: --> <text x="1500" y="230" font-family="Fira Sans Condensed" dominant-baseline="hanging" text-anchor="middle" font-size="50px">Start</text>
<!-- Cell: --> <polyline points="1475,175 1525,175 1525,225 1475,225 1475,175" stroke="silver" fill="none" stroke-dasharray="3"/><polyline points="1475,175 1525,225" stroke="silver" fill="none" stroke-dasharray="3"/><polyline points="1525,175 1475,225" stroke="silver" fill="none" stroke-dasharray="3"/><polyline points="1475,180 1475,175 1480,175" stroke="black" fill="none"/><polyline points="1525,180 1525,175 1520,175" stroke="black" fill="none"/><polyline points="1525,220 1525,225 1520,225" stroke="black" fill="none"/><polyline points="1475,220 1475,225 1480,225" stroke="black" fill="none"/><polyline points="1495,175 1505,175" stroke="black" fill="none"/><polyline points="1495,225 1505,225" stroke="black" fill="none"/><polyline points="1475,195 1475,205" stroke="black" fill="none"/><polyline points="1525,195 1525,205" stroke="black" fill="none"/><polyline points="1495,200 1505,200" stroke="black" fill="none"/><polyline points="1500,195 1500,205" stroke="black" fill="none"/>
      <!-- → End : End -->
<!-- Terminator: --> <rect x="1690" y="275" width="20" height="50" fill="darkGreen" /><text x="1720" y="300" dominant-baseline="middle" font-family="Fira Sans Condensed" font-size="50px">→</text>
<!-- Label: --> <text x="1700" y="330" font-family="Fira Sans Condensed" dominant-baseline="hanging" text-anchor="middle" font-size="50px">End</text>
<!-- Cell: --> <polyline points="1675,275 1725,275 1725,325 1675,325 1675,275" stroke="silver" fill="none" stroke-dasharray="3"/><polyline points="1675,275 1725,325" stroke="silver" fill="none" stroke-dasharray="3"/><polyline points="1725,275 1675,325" stroke="silver" fill="none" stroke-dasharray="3"/><polyline points="1675,280 1675,275 1680,275" stroke="black" fill="none"/><polyline points="1725,280 1725,275 1720,275" stroke="black" fill="none"/><polyline points="1725,320 1725,325 1720,325" stroke="black" fill="none"/><polyline points="1675,320 1675,325 1680,325" stroke="black" fill="none"/><polyline points="1695,275 1705,275" stroke="black" fill="none"/><polyline points="1695,325 1705,325" stroke="black" fill="none"/><polyline points="1675,295 1675,305" stroke="black" fill="none"/><polyline points="1725,295 1725,305" stroke="black" fill="none"/><polyline points="1695,300 1705,300" stroke="black" fill="none"/><polyline points="1700,295 1700,305" stroke="black" fill="none"/>

      <!-- ← Start : Start -->
      <!-- Connector: --> 
<!-- Terminator: --> <rect x="390" y="675" width="20" height="50" fill="purple" /><text x="420" y="700" dominant-baseline="middle" font-family="Fira Sans Condensed" font-size="50px">←</text>
      <!-- ← End : End -->
      <!-- Connector: --> <path d="M400,700 L200,700" stroke="purple" fill="none" stroke-width="20" stroke-linecap="round" stroke-linejoin="round"/>
<!-- Terminator: --> <rect x="190" y="675" width="20" height="50" fill="purple" /><text x="180" y="700" text-anchor="end" dominant-baseline="middle" font-family="Fira Sans Condensed" font-size="50px">←</text>

      <!-- ← Start : Start -->
<!-- Terminator: --> <rect x="390" y="675" width="20" height="50" fill="purple" /><text x="420" y="700" dominant-baseline="middle" font-family="Fira Sans Condensed" font-size="50px">←</text>
<!-- Label: --> <text x="400" y="730" font-family="Fira Sans Condensed" dominant-baseline="hanging" text-anchor="middle" font-size="50px">Start</text>
<!-- Cell: --> <polyline points="375,675 425,675 425,725 375,725 375,675" stroke="silver" fill="none" stroke-dasharray="3"/><polyline points="375,675 425,725" stroke="silver" fill="none" stroke-dasharray="3"/><polyline points="425,675 375,725" stroke="silver" fill="none" stroke-dasharray="3"/><polyline points="375,680 375,675 380,675" stroke="black" fill="none"/><polyline points="425,680 425,675 420,675" stroke="black" fill="none"/><polyline points="425,720 425,725 420,725" stroke="black" fill="none"/><polyline points="375,720 375,725 380,725" stroke="black" fill="none"/><polyline points="395,675 405,675" stroke="black" fill="none"/><polyline points="395,725 405,725" stroke="black" fill="none"/><polyline points="375,695 375,705" stroke="black" fill="none"/><polyline points="425,695 425,705" stroke="black" fill="none"/><polyline points="395,700 405,700" stroke="black" fill="none"/><polyline points="400,695 400,705" stroke="black" fill="none"/>
      <!-- ← End : End -->
<!-- Terminator: --> <rect x="190" y="675" width="20" height="50" fill="purple" /><text x="180" y="700" text-anchor="end" dominant-baseline="middle" font-family="Fira Sans Condensed" font-size="50px">←</text>
<!-- Label: --> <text x="200" y="730" font-family="Fira Sans Condensed" dominant-baseline="hanging" text-anchor="middle" font-size="50px">End</text>
<!-- Cell: --> <polyline points="175,675 225,675 225,725 175,725 175,675" stroke="silver" fill="none" stroke-dasharray="3"/><polyline points="175,675 225,725" stroke="silver" fill="none" stroke-dasharray="3"/><polyline points="225,675 175,725" stroke="silver" fill="none" stroke-dasharray="3"/><polyline points="175,680 175,675 180,675" stroke="black" fill="none"/><polyline points="225,680 225,675 220,675" stroke="black" fill="none"/><polyline points="225,720 225,725 220,725" stroke="black" fill="none"/><polyline points="175,720 175,725 180,725" stroke="black" fill="none"/><polyline points="195,675 205,675" stroke="black" fill="none"/><polyline points="195,725 205,725" stroke="black" fill="none"/><polyline points="175,695 175,705" stroke="black" fill="none"/><polyline points="225,695 225,705" stroke="black" fill="none"/><polyline points="195,700 205,700" stroke="black" fill="none"/><polyline points="200,695 200,705" stroke="black" fill="none"/>

      <!-- ← Start : Start -->
      <!-- Connector: --> 
<!-- Terminator: --> <rect x="1090" y="675" width="20" height="50" fill="gray" /><text x="1120" y="700" dominant-baseline="middle" font-family="Fira Sans Condensed" font-size="50px">←</text>
      <!-- ← End : End -->
      <!-- Connector: --> <path d="M1100,700 L1075,700 C1025,700 975,650 925,650  L900,650" stroke="gray" fill="none" stroke-width="20" stroke-linecap="round" stroke-linejoin="round"/>
<!-- Terminator: --> <rect x="890" y="625" width="20" height="50" fill="gray" /><text x="880" y="650" text-anchor="end" dominant-baseline="middle" font-family="Fira Sans Condensed" font-size="50px">←</text>

      <!-- ← Start : Start -->
<!-- Terminator: --> <rect x="1090" y="675" width="20" height="50" fill="gray" /><text x="1120" y="700" dominant-baseline="middle" font-family="Fira Sans Condensed" font-size="50px">←</text>
<!-- Label: --> <text x="1100" y="730" font-family="Fira Sans Condensed" dominant-baseline="hanging" text-anchor="middle" font-size="50px">Start</text>
<!-- Cell: --> <polyline points="1075,675 1125,675 1125,725 1075,725 1075,675" stroke="silver" fill="none" stroke-dasharray="3"/><polyline points="1075,675 1125,725" stroke="silver" fill="none" stroke-dasharray="3"/><polyline points="1125,675 1075,725" stroke="silver" fill="none" stroke-dasharray="3"/><polyline points="1075,680 1075,675 1080,675" stroke="black" fill="none"/><polyline points="1125,680 1125,675 1120,675" stroke="black" fill="none"/><polyline points="1125,720 1125,725 1120,725" stroke="black" fill="none"/><polyline points="1075,720 1075,725 1080,725" stroke="black" fill="none"/><polyline points="1095,675 1105,675" stroke="black" fill="none"/><polyline points="1095,725 1105,725" stroke="black" fill="none"/><polyline points="1075,695 1075,705" stroke="black" fill="none"/><polyline points="1125,695 1125,705" stroke="black" fill="none"/><polyline points="1095,700 1105,700" stroke="black" fill="none"/><polyline points="1100,695 1100,705" stroke="black" fill="none"/>
      <!-- ← End : End -->
<!-- Terminator: --> <rect x="890" y="625" width="20" height="50" fill="gray" /><text x="880" y="650" text-anchor="end" dominant-baseline="middle" font-family="Fira Sans Condensed" font-size="50px">←</text>
<!-- Label: --> <text x="900" y="680" font-family="Fira Sans Condensed" dominant-baseline="hanging" text-anchor="middle" font-size="50px">End</text>
<!-- Cell: --> <polyline points="875,625 925,625 925,675 875,675 875,625" stroke="silver" fill="none" stroke-dasharray="3"/><polyline points="875,625 925,675" stroke="silver" fill="none" stroke-dasharray="3"/><polyline points="925,625 875,675" stroke="silver" fill="none" stroke-dasharray="3"/><polyline points="875,630 875,625 880,625" stroke="black" fill="none"/><polyline points="925,630 925,625 920,625" stroke="black" fill="none"/><polyline points="925,670 925,675 920,675" stroke="black" fill="none"/><polyline points="875,670 875,675 880,675" stroke="black" fill="none"/><polyline points="895,625 905,625" stroke="black" fill="none"/><polyline points="895,675 905,675" stroke="black" fill="none"/><polyline points="875,645 875,655" stroke="black" fill="none"/><polyline points="925,645 925,655" stroke="black" fill="none"/><polyline points="895,650 905,650" stroke="black" fill="none"/><polyline points="900,645 900,655" stroke="black" fill="none"/>

      <!-- ← Start : Start -->
      <!-- Connector: --> 
<!-- Terminator: --> <rect x="1690" y="675" width="20" height="50" fill="orange" /><text x="1720" y="700" dominant-baseline="middle" font-family="Fira Sans Condensed" font-size="50px">←</text>
      <!-- ← End : End -->
      <!-- Connector: --> <path d="M1700,700 L1675,700 C1625,700 1575,750 1525,750  L1500,750" stroke="orange" fill="none" stroke-width="20" stroke-linecap="round" stroke-linejoin="round"/>
<!-- Terminator: --> <rect x="1490" y="725" width="20" height="50" fill="orange" /><text x="1480" y="750" text-anchor="end" dominant-baseline="middle" font-family="Fira Sans Condensed" font-size="50px">←</text>

      <!-- ← Start : Start -->
<!-- Terminator: --> <rect x="1690" y="675" width="20" height="50" fill="orange" /><text x="1720" y="700" dominant-baseline="middle" font-family="Fira Sans Condensed" font-size="50px">←</text>
<!-- Label: --> <text x="1700" y="730" font-family="Fira Sans Condensed" dominant-baseline="hanging" text-anchor="middle" font-size="50px">Start</text>
<!-- Cell: --> <polyline points="1675,675 1725,675 1725,725 1675,725 1675,675" stroke="silver" fill="none" stroke-dasharray="3"/><polyline points="1675,675 1725,725" stroke="silver" fill="none" stroke-dasharray="3"/><polyline points="1725,675 1675,725" stroke="silver" fill="none" stroke-dasharray="3"/><polyline points="1675,680 1675,675 1680,675" stroke="black" fill="none"/><polyline points="1725,680 1725,675 1720,675" stroke="black" fill="none"/><polyline points="1725,720 1725,725 1720,725" stroke="black" fill="none"/><polyline points="1675,720 1675,725 1680,725" stroke="black" fill="none"/><polyline points="1695,675 1705,675" stroke="black" fill="none"/><polyline points="1695,725 1705,725" stroke="black" fill="none"/><polyline points="1675,695 1675,705" stroke="black" fill="none"/><polyline points="1725,695 1725,705" stroke="black" fill="none"/><polyline points="1695,700 1705,700" stroke="black" fill="none"/><polyline points="1700,695 1700,705" stroke="black" fill="none"/>
      <!-- ← End : End -->
<!-- Terminator: --> <rect x="1490" y="725" width="20" height="50" fill="orange" /><text x="1480" y="750" text-anchor="end" dominant-baseline="middle" font-family="Fira Sans Condensed" font-size="50px">←</text>
<!-- Label: --> <text x="1500" y="780" font-family="Fira Sans Condensed" dominant-baseline="hanging" text-anchor="middle" font-size="50px">End</text>
<!-- Cell: --> <polyline points="1475,725 1525,725 1525,775 1475,775 1475,725" stroke="silver" fill="none" stroke-dasharray="3"/><polyline points="1475,725 1525,775" stroke="silver" fill="none" stroke-dasharray="3"/><polyline points="1525,725 1475,775" stroke="silver" fill="none" stroke-dasharray="3"/><polyline points="1475,730 1475,725 1480,725" stroke="black" fill="none"/><polyline points="1525,730 1525,725 1520,725" stroke="black" fill="none"/><polyline points="1525,770 1525,775 1520,775" stroke="black" fill="none"/><polyline points="1475,770 1475,775 1480,775" stroke="black" fill="none"/><polyline points="1495,725 1505,725" stroke="black" fill="none"/><polyline points="1495,775 1505,775" stroke="black" fill="none"/><polyline points="1475,745 1475,755" stroke="black" fill="none"/><polyline points="1525,745 1525,755" stroke="black" fill="none"/><polyline points="1495,750 1505,750" stroke="black" fill="none"/><polyline points="1500,745 1500,755" stroke="black" fill="none"/>

</svg>