<svg version="1.1"
     baseProfile="full"
     width="8000" height="8000"
     xmlns="http://www.w3.org/2000/svg">
  <style>
    @font-face {
        font-family: "Fira Sans Condensed";
        src: url("https://fonts.googleapis.com/css?family=Fira+Sans+Condensed&amp;display=swap");
    }
  </style>
    <!-- Background -->
    <rect width="100%" height="100%" fill="white" stroke="#dddddd"/>

      <!-- Legend for M8 : Edinburgh City Bypass - Greenock -->
      <rect x="10" y="100" fill="red" height="200" width="3500" stroke="white" stroke-width="1"/>
      <g text-anchor="start" font-size="180px" dominant-baseline="middle" fill="white" font-family="Fira Sans Condensed">
          <text x="60" y="200" font-weight="bold">M8</text>
          <text x="610" y="200">Edinburgh City Bypass - Greenock</text>
      </g>

      <!-- M8 J1 : Edinburgh City Bypass -->
      <!-- Connector: --> 

      <!-- M8 J2 : Ratho -->
      <!-- Connector: --> <polyline points="7700,4000 7725,4000 7875,4000 7900,4000" stroke="red" fill="none" stroke-width="20" stroke-linecap="round"/>

      <!-- M8 J3 : Livingston -->
      <!-- Connector: --> <polyline points="7500,4000 7525,4000 7675,4000 7700,4000" stroke="red" fill="none" stroke-width="20" stroke-linecap="round"/>

      <!-- M8 J3A : Bathgate -->
      <!-- Connector: --> <polyline points="7300,4000 7325,4000 7475,4000 7500,4000" stroke="red" fill="none" stroke-width="20" stroke-linecap="round"/>

      <!-- M8 J4 : Whitburn -->
      <!-- Connector: --> <polyline points="7100,4000 7125,4000 7275,4000 7300,4000" stroke="red" fill="none" stroke-width="20" stroke-linecap="round"/>

      <!-- M8 J4A : Heartlands -->
      <!-- Connector: --> <polyline points="6900,4000 6925,4000 7075,4000 7100,4000" stroke="red" fill="none" stroke-width="20" stroke-linecap="round"/>

      <!-- M8 Services : Heart of Scotland Services -->
      <!-- Connector: --> <polyline points="6700,4000 6725,4000 6875,4000 6900,4000" stroke="red" fill="none" stroke-width="20" stroke-linecap="round"/>

      <!-- M8 J5 : Harthill -->
      <!-- Connector: --> <polyline points="6500,4000 6525,4000 6675,4000 6700,4000" stroke="red" fill="none" stroke-width="20" stroke-linecap="round"/>

      <!-- M8 J6 : Newhouse -->
      <!-- Connector: --> <polyline points="6300,4000 6325,4000 6475,4000 6500,4000" stroke="red" fill="none" stroke-width="20" stroke-linecap="round"/>

      <!-- M8 J6A : Chapelhall -->
      <!-- Connector: --> <polyline points="6100,4000 6125,4000 6275,4000 6300,4000" stroke="red" fill="none" stroke-width="20" stroke-linecap="round"/>

      <!-- M8 J7 : Eurocentral -->
      <!-- Connector: --> <polyline points="5900,4000 5925,4000 6075,4000 6100,4000" stroke="red" fill="none" stroke-width="20" stroke-linecap="round"/>

      <!-- M8 J7A : Shawhead -->
      <!-- Connector: --> <polyline points="5700,4000 5725,4000 5875,4000 5900,4000" stroke="red" fill="none" stroke-width="20" stroke-linecap="round"/>

      <!-- M8 J8 : Baillieston -->
      <!-- Connector: --> <polyline points="5500,4000 5525,4000 5675,4000 5700,4000" stroke="red" fill="none" stroke-width="20" stroke-linecap="round"/>

      <!-- M8 J9 : Easterhouse -->
      <!-- Connector: --> <polyline points="5300,4000 5325,4000 5475,4000 5500,4000" stroke="red" fill="none" stroke-width="20" stroke-linecap="round"/>

      <!-- M8 J10 : Bartlebeith -->
      <!-- Connector: --> <polyline points="5100,4000 5125,4000 5275,4000 5300,4000" stroke="red" fill="none" stroke-width="20" stroke-linecap="round"/>

      <!-- M8 J30 : Bishopton -->
      <!-- Connector: --> <polyline points="300,4000 325,4000 5075,4000 5100,4000" stroke="red" fill="none" stroke-width="20" stroke-linecap="round"/>

      <!-- M8 J31 : Greenock -->
      <!-- Connector: --> <polyline points="100,4000 125,4000 275,4000 300,4000" stroke="red" fill="none" stroke-width="20" stroke-linecap="round"/>


        <!-- Terminator: --> <rect x="7890" y="3975" width="20" height="50" fill="red" /><text x="7920" y="4000" dominant-baseline="middle" font-family="Fira Sans Condensed" font-size="50px">M8</text>
        <!-- Interchange: --> 
        <!-- Cell: --> <polyline points="7875,3975 7925,3975 7925,4025 7875,4025 7875,3975" stroke="silver" fill="none" stroke-dasharray="3"/><polyline points="7875,3975 7925,4025" stroke="silver" fill="none" stroke-dasharray="3"/><polyline points="7925,3975 7875,4025" stroke="silver" fill="none" stroke-dasharray="3"/><polyline points="7875,3980 7875,3975 7880,3975" stroke="black" fill="none"/><polyline points="7925,3980 7925,3975 7920,3975" stroke="black" fill="none"/><polyline points="7925,4020 7925,4025 7920,4025" stroke="black" fill="none"/><polyline points="7875,4020 7875,4025 7880,4025" stroke="black" fill="none"/><polyline points="7895,3975 7905,3975" stroke="black" fill="none"/><polyline points="7895,4025 7905,4025" stroke="black" fill="none"/><polyline points="7875,3995 7875,4005" stroke="black" fill="none"/><polyline points="7925,3995 7925,4005" stroke="black" fill="none"/><polyline points="7895,4000 7905,4000" stroke="black" fill="none"/><polyline points="7900,3995 7900,4005" stroke="black" fill="none"/>
        <!-- Terminator: --> 
        <!-- Interchange: --> <circle cx="7700" cy="4000" r="25" fill="white" stroke="black" stroke-width="6.25" />
        <!-- Cell: --> <polyline points="7675,3975 7725,3975 7725,4025 7675,4025 7675,3975" stroke="silver" fill="none" stroke-dasharray="3"/><polyline points="7675,3975 7725,4025" stroke="silver" fill="none" stroke-dasharray="3"/><polyline points="7725,3975 7675,4025" stroke="silver" fill="none" stroke-dasharray="3"/><polyline points="7675,3980 7675,3975 7680,3975" stroke="black" fill="none"/><polyline points="7725,3980 7725,3975 7720,3975" stroke="black" fill="none"/><polyline points="7725,4020 7725,4025 7720,4025" stroke="black" fill="none"/><polyline points="7675,4020 7675,4025 7680,4025" stroke="black" fill="none"/><polyline points="7695,3975 7705,3975" stroke="black" fill="none"/><polyline points="7695,4025 7705,4025" stroke="black" fill="none"/><polyline points="7675,3995 7675,4005" stroke="black" fill="none"/><polyline points="7725,3995 7725,4005" stroke="black" fill="none"/><polyline points="7695,4000 7705,4000" stroke="black" fill="none"/><polyline points="7700,3995 7700,4005" stroke="black" fill="none"/>
        <!-- Terminator: --> 
        <!-- Interchange: --> 
        <!-- Cell: --> <polyline points="7475,3975 7525,3975 7525,4025 7475,4025 7475,3975" stroke="silver" fill="none" stroke-dasharray="3"/><polyline points="7475,3975 7525,4025" stroke="silver" fill="none" stroke-dasharray="3"/><polyline points="7525,3975 7475,4025" stroke="silver" fill="none" stroke-dasharray="3"/><polyline points="7475,3980 7475,3975 7480,3975" stroke="black" fill="none"/><polyline points="7525,3980 7525,3975 7520,3975" stroke="black" fill="none"/><polyline points="7525,4020 7525,4025 7520,4025" stroke="black" fill="none"/><polyline points="7475,4020 7475,4025 7480,4025" stroke="black" fill="none"/><polyline points="7495,3975 7505,3975" stroke="black" fill="none"/><polyline points="7495,4025 7505,4025" stroke="black" fill="none"/><polyline points="7475,3995 7475,4005" stroke="black" fill="none"/><polyline points="7525,3995 7525,4005" stroke="black" fill="none"/><polyline points="7495,4000 7505,4000" stroke="black" fill="none"/><polyline points="7500,3995 7500,4005" stroke="black" fill="none"/>
        <!-- Terminator: --> 
        <!-- Interchange: --> 
        <!-- Cell: --> <polyline points="7275,3975 7325,3975 7325,4025 7275,4025 7275,3975" stroke="silver" fill="none" stroke-dasharray="3"/><polyline points="7275,3975 7325,4025" stroke="silver" fill="none" stroke-dasharray="3"/><polyline points="7325,3975 7275,4025" stroke="silver" fill="none" stroke-dasharray="3"/><polyline points="7275,3980 7275,3975 7280,3975" stroke="black" fill="none"/><polyline points="7325,3980 7325,3975 7320,3975" stroke="black" fill="none"/><polyline points="7325,4020 7325,4025 7320,4025" stroke="black" fill="none"/><polyline points="7275,4020 7275,4025 7280,4025" stroke="black" fill="none"/><polyline points="7295,3975 7305,3975" stroke="black" fill="none"/><polyline points="7295,4025 7305,4025" stroke="black" fill="none"/><polyline points="7275,3995 7275,4005" stroke="black" fill="none"/><polyline points="7325,3995 7325,4005" stroke="black" fill="none"/><polyline points="7295,4000 7305,4000" stroke="black" fill="none"/><polyline points="7300,3995 7300,4005" stroke="black" fill="none"/>
        <!-- Terminator: --> 
        <!-- Interchange: --> 
        <!-- Cell: --> <polyline points="7075,3975 7125,3975 7125,4025 7075,4025 7075,3975" stroke="silver" fill="none" stroke-dasharray="3"/><polyline points="7075,3975 7125,4025" stroke="silver" fill="none" stroke-dasharray="3"/><polyline points="7125,3975 7075,4025" stroke="silver" fill="none" stroke-dasharray="3"/><polyline points="7075,3980 7075,3975 7080,3975" stroke="black" fill="none"/><polyline points="7125,3980 7125,3975 7120,3975" stroke="black" fill="none"/><polyline points="7125,4020 7125,4025 7120,4025" stroke="black" fill="none"/><polyline points="7075,4020 7075,4025 7080,4025" stroke="black" fill="none"/><polyline points="7095,3975 7105,3975" stroke="black" fill="none"/><polyline points="7095,4025 7105,4025" stroke="black" fill="none"/><polyline points="7075,3995 7075,4005" stroke="black" fill="none"/><polyline points="7125,3995 7125,4005" stroke="black" fill="none"/><polyline points="7095,4000 7105,4000" stroke="black" fill="none"/><polyline points="7100,3995 7100,4005" stroke="black" fill="none"/>
        <!-- Terminator: --> 
        <!-- Interchange: --> 
        <!-- Cell: --> <polyline points="6875,3975 6925,3975 6925,4025 6875,4025 6875,3975" stroke="silver" fill="none" stroke-dasharray="3"/><polyline points="6875,3975 6925,4025" stroke="silver" fill="none" stroke-dasharray="3"/><polyline points="6925,3975 6875,4025" stroke="silver" fill="none" stroke-dasharray="3"/><polyline points="6875,3980 6875,3975 6880,3975" stroke="black" fill="none"/><polyline points="6925,3980 6925,3975 6920,3975" stroke="black" fill="none"/><polyline points="6925,4020 6925,4025 6920,4025" stroke="black" fill="none"/><polyline points="6875,4020 6875,4025 6880,4025" stroke="black" fill="none"/><polyline points="6895,3975 6905,3975" stroke="black" fill="none"/><polyline points="6895,4025 6905,4025" stroke="black" fill="none"/><polyline points="6875,3995 6875,4005" stroke="black" fill="none"/><polyline points="6925,3995 6925,4005" stroke="black" fill="none"/><polyline points="6895,4000 6905,4000" stroke="black" fill="none"/><polyline points="6900,3995 6900,4005" stroke="black" fill="none"/>
        <!-- Terminator: --> 
        <!-- Interchange: --> 
        <!-- Cell: --> <polyline points="6675,3975 6725,3975 6725,4025 6675,4025 6675,3975" stroke="silver" fill="none" stroke-dasharray="3"/><polyline points="6675,3975 6725,4025" stroke="silver" fill="none" stroke-dasharray="3"/><polyline points="6725,3975 6675,4025" stroke="silver" fill="none" stroke-dasharray="3"/><polyline points="6675,3980 6675,3975 6680,3975" stroke="black" fill="none"/><polyline points="6725,3980 6725,3975 6720,3975" stroke="black" fill="none"/><polyline points="6725,4020 6725,4025 6720,4025" stroke="black" fill="none"/><polyline points="6675,4020 6675,4025 6680,4025" stroke="black" fill="none"/><polyline points="6695,3975 6705,3975" stroke="black" fill="none"/><polyline points="6695,4025 6705,4025" stroke="black" fill="none"/><polyline points="6675,3995 6675,4005" stroke="black" fill="none"/><polyline points="6725,3995 6725,4005" stroke="black" fill="none"/><polyline points="6695,4000 6705,4000" stroke="black" fill="none"/><polyline points="6700,3995 6700,4005" stroke="black" fill="none"/>
        <!-- Terminator: --> 
        <!-- Interchange: --> 
        <!-- Cell: --> <polyline points="6475,3975 6525,3975 6525,4025 6475,4025 6475,3975" stroke="silver" fill="none" stroke-dasharray="3"/><polyline points="6475,3975 6525,4025" stroke="silver" fill="none" stroke-dasharray="3"/><polyline points="6525,3975 6475,4025" stroke="silver" fill="none" stroke-dasharray="3"/><polyline points="6475,3980 6475,3975 6480,3975" stroke="black" fill="none"/><polyline points="6525,3980 6525,3975 6520,3975" stroke="black" fill="none"/><polyline points="6525,4020 6525,4025 6520,4025" stroke="black" fill="none"/><polyline points="6475,4020 6475,4025 6480,4025" stroke="black" fill="none"/><polyline points="6495,3975 6505,3975" stroke="black" fill="none"/><polyline points="6495,4025 6505,4025" stroke="black" fill="none"/><polyline points="6475,3995 6475,4005" stroke="black" fill="none"/><polyline points="6525,3995 6525,4005" stroke="black" fill="none"/><polyline points="6495,4000 6505,4000" stroke="black" fill="none"/><polyline points="6500,3995 6500,4005" stroke="black" fill="none"/>
        <!-- Terminator: --> 
        <!-- Interchange: --> 
        <!-- Cell: --> <polyline points="6275,3975 6325,3975 6325,4025 6275,4025 6275,3975" stroke="silver" fill="none" stroke-dasharray="3"/><polyline points="6275,3975 6325,4025" stroke="silver" fill="none" stroke-dasharray="3"/><polyline points="6325,3975 6275,4025" stroke="silver" fill="none" stroke-dasharray="3"/><polyline points="6275,3980 6275,3975 6280,3975" stroke="black" fill="none"/><polyline points="6325,3980 6325,3975 6320,3975" stroke="black" fill="none"/><polyline points="6325,4020 6325,4025 6320,4025" stroke="black" fill="none"/><polyline points="6275,4020 6275,4025 6280,4025" stroke="black" fill="none"/><polyline points="6295,3975 6305,3975" stroke="black" fill="none"/><polyline points="6295,4025 6305,4025" stroke="black" fill="none"/><polyline points="6275,3995 6275,4005" stroke="black" fill="none"/><polyline points="6325,3995 6325,4005" stroke="black" fill="none"/><polyline points="6295,4000 6305,4000" stroke="black" fill="none"/><polyline points="6300,3995 6300,4005" stroke="black" fill="none"/>
        <!-- Terminator: --> 
        <!-- Interchange: --> 
        <!-- Cell: --> <polyline points="6075,3975 6125,3975 6125,4025 6075,4025 6075,3975" stroke="silver" fill="none" stroke-dasharray="3"/><polyline points="6075,3975 6125,4025" stroke="silver" fill="none" stroke-dasharray="3"/><polyline points="6125,3975 6075,4025" stroke="silver" fill="none" stroke-dasharray="3"/><polyline points="6075,3980 6075,3975 6080,3975" stroke="black" fill="none"/><polyline points="6125,3980 6125,3975 6120,3975" stroke="black" fill="none"/><polyline points="6125,4020 6125,4025 6120,4025" stroke="black" fill="none"/><polyline points="6075,4020 6075,4025 6080,4025" stroke="black" fill="none"/><polyline points="6095,3975 6105,3975" stroke="black" fill="none"/><polyline points="6095,4025 6105,4025" stroke="black" fill="none"/><polyline points="6075,3995 6075,4005" stroke="black" fill="none"/><polyline points="6125,3995 6125,4005" stroke="black" fill="none"/><polyline points="6095,4000 6105,4000" stroke="black" fill="none"/><polyline points="6100,3995 6100,4005" stroke="black" fill="none"/>
        <!-- Terminator: --> 
        <!-- Interchange: --> 
        <!-- Cell: --> <polyline points="5875,3975 5925,3975 5925,4025 5875,4025 5875,3975" stroke="silver" fill="none" stroke-dasharray="3"/><polyline points="5875,3975 5925,4025" stroke="silver" fill="none" stroke-dasharray="3"/><polyline points="5925,3975 5875,4025" stroke="silver" fill="none" stroke-dasharray="3"/><polyline points="5875,3980 5875,3975 5880,3975" stroke="black" fill="none"/><polyline points="5925,3980 5925,3975 5920,3975" stroke="black" fill="none"/><polyline points="5925,4020 5925,4025 5920,4025" stroke="black" fill="none"/><polyline points="5875,4020 5875,4025 5880,4025" stroke="black" fill="none"/><polyline points="5895,3975 5905,3975" stroke="black" fill="none"/><polyline points="5895,4025 5905,4025" stroke="black" fill="none"/><polyline points="5875,3995 5875,4005" stroke="black" fill="none"/><polyline points="5925,3995 5925,4005" stroke="black" fill="none"/><polyline points="5895,4000 5905,4000" stroke="black" fill="none"/><polyline points="5900,3995 5900,4005" stroke="black" fill="none"/>
        <!-- Terminator: --> 
        <!-- Interchange: --> 
        <!-- Cell: --> <polyline points="5675,3975 5725,3975 5725,4025 5675,4025 5675,3975" stroke="silver" fill="none" stroke-dasharray="3"/><polyline points="5675,3975 5725,4025" stroke="silver" fill="none" stroke-dasharray="3"/><polyline points="5725,3975 5675,4025" stroke="silver" fill="none" stroke-dasharray="3"/><polyline points="5675,3980 5675,3975 5680,3975" stroke="black" fill="none"/><polyline points="5725,3980 5725,3975 5720,3975" stroke="black" fill="none"/><polyline points="5725,4020 5725,4025 5720,4025" stroke="black" fill="none"/><polyline points="5675,4020 5675,4025 5680,4025" stroke="black" fill="none"/><polyline points="5695,3975 5705,3975" stroke="black" fill="none"/><polyline points="5695,4025 5705,4025" stroke="black" fill="none"/><polyline points="5675,3995 5675,4005" stroke="black" fill="none"/><polyline points="5725,3995 5725,4005" stroke="black" fill="none"/><polyline points="5695,4000 5705,4000" stroke="black" fill="none"/><polyline points="5700,3995 5700,4005" stroke="black" fill="none"/>
        <!-- Terminator: --> 
        <!-- Interchange: --> <circle cx="5500" cy="4000" r="25" fill="white" stroke="black" stroke-width="6.25" />
        <!-- Cell: --> <polyline points="5475,3975 5525,3975 5525,4025 5475,4025 5475,3975" stroke="silver" fill="none" stroke-dasharray="3"/><polyline points="5475,3975 5525,4025" stroke="silver" fill="none" stroke-dasharray="3"/><polyline points="5525,3975 5475,4025" stroke="silver" fill="none" stroke-dasharray="3"/><polyline points="5475,3980 5475,3975 5480,3975" stroke="black" fill="none"/><polyline points="5525,3980 5525,3975 5520,3975" stroke="black" fill="none"/><polyline points="5525,4020 5525,4025 5520,4025" stroke="black" fill="none"/><polyline points="5475,4020 5475,4025 5480,4025" stroke="black" fill="none"/><polyline points="5495,3975 5505,3975" stroke="black" fill="none"/><polyline points="5495,4025 5505,4025" stroke="black" fill="none"/><polyline points="5475,3995 5475,4005" stroke="black" fill="none"/><polyline points="5525,3995 5525,4005" stroke="black" fill="none"/><polyline points="5495,4000 5505,4000" stroke="black" fill="none"/><polyline points="5500,3995 5500,4005" stroke="black" fill="none"/>
        <!-- Terminator: --> 
        <!-- Interchange: --> 
        <!-- Cell: --> <polyline points="5275,3975 5325,3975 5325,4025 5275,4025 5275,3975" stroke="silver" fill="none" stroke-dasharray="3"/><polyline points="5275,3975 5325,4025" stroke="silver" fill="none" stroke-dasharray="3"/><polyline points="5325,3975 5275,4025" stroke="silver" fill="none" stroke-dasharray="3"/><polyline points="5275,3980 5275,3975 5280,3975" stroke="black" fill="none"/><polyline points="5325,3980 5325,3975 5320,3975" stroke="black" fill="none"/><polyline points="5325,4020 5325,4025 5320,4025" stroke="black" fill="none"/><polyline points="5275,4020 5275,4025 5280,4025" stroke="black" fill="none"/><polyline points="5295,3975 5305,3975" stroke="black" fill="none"/><polyline points="5295,4025 5305,4025" stroke="black" fill="none"/><polyline points="5275,3995 5275,4005" stroke="black" fill="none"/><polyline points="5325,3995 5325,4005" stroke="black" fill="none"/><polyline points="5295,4000 5305,4000" stroke="black" fill="none"/><polyline points="5300,3995 5300,4005" stroke="black" fill="none"/>
        <!-- Terminator: --> 
        <!-- Interchange: --> 
        <!-- Cell: --> <polyline points="5075,3975 5125,3975 5125,4025 5075,4025 5075,3975" stroke="silver" fill="none" stroke-dasharray="3"/><polyline points="5075,3975 5125,4025" stroke="silver" fill="none" stroke-dasharray="3"/><polyline points="5125,3975 5075,4025" stroke="silver" fill="none" stroke-dasharray="3"/><polyline points="5075,3980 5075,3975 5080,3975" stroke="black" fill="none"/><polyline points="5125,3980 5125,3975 5120,3975" stroke="black" fill="none"/><polyline points="5125,4020 5125,4025 5120,4025" stroke="black" fill="none"/><polyline points="5075,4020 5075,4025 5080,4025" stroke="black" fill="none"/><polyline points="5095,3975 5105,3975" stroke="black" fill="none"/><polyline points="5095,4025 5105,4025" stroke="black" fill="none"/><polyline points="5075,3995 5075,4005" stroke="black" fill="none"/><polyline points="5125,3995 5125,4005" stroke="black" fill="none"/><polyline points="5095,4000 5105,4000" stroke="black" fill="none"/><polyline points="5100,3995 5100,4005" stroke="black" fill="none"/>
        <!-- Terminator: --> 
        <!-- Interchange: --> <circle cx="300" cy="4000" r="25" fill="white" stroke="black" stroke-width="6.25" />
        <!-- Cell: --> <polyline points="275,3975 325,3975 325,4025 275,4025 275,3975" stroke="silver" fill="none" stroke-dasharray="3"/><polyline points="275,3975 325,4025" stroke="silver" fill="none" stroke-dasharray="3"/><polyline points="325,3975 275,4025" stroke="silver" fill="none" stroke-dasharray="3"/><polyline points="275,3980 275,3975 280,3975" stroke="black" fill="none"/><polyline points="325,3980 325,3975 320,3975" stroke="black" fill="none"/><polyline points="325,4020 325,4025 320,4025" stroke="black" fill="none"/><polyline points="275,4020 275,4025 280,4025" stroke="black" fill="none"/><polyline points="295,3975 305,3975" stroke="black" fill="none"/><polyline points="295,4025 305,4025" stroke="black" fill="none"/><polyline points="275,3995 275,4005" stroke="black" fill="none"/><polyline points="325,3995 325,4005" stroke="black" fill="none"/><polyline points="295,4000 305,4000" stroke="black" fill="none"/><polyline points="300,3995 300,4005" stroke="black" fill="none"/>
        <!-- Terminator: --> <rect x="90" y="3975" width="20" height="50" fill="red" /><text x="80" y="4000" text-anchor="end" dominant-baseline="middle" font-family="Fira Sans Condensed" font-size="50px">M8</text>
        <!-- Interchange: --> 
        <!-- Cell: --> <polyline points="75,3975 125,3975 125,4025 75,4025 75,3975" stroke="silver" fill="none" stroke-dasharray="3"/><polyline points="75,3975 125,4025" stroke="silver" fill="none" stroke-dasharray="3"/><polyline points="125,3975 75,4025" stroke="silver" fill="none" stroke-dasharray="3"/><polyline points="75,3980 75,3975 80,3975" stroke="black" fill="none"/><polyline points="125,3980 125,3975 120,3975" stroke="black" fill="none"/><polyline points="125,4020 125,4025 120,4025" stroke="black" fill="none"/><polyline points="75,4020 75,4025 80,4025" stroke="black" fill="none"/><polyline points="95,3975 105,3975" stroke="black" fill="none"/><polyline points="95,4025 105,4025" stroke="black" fill="none"/><polyline points="75,3995 75,4005" stroke="black" fill="none"/><polyline points="125,3995 125,4005" stroke="black" fill="none"/><polyline points="95,4000 105,4000" stroke="black" fill="none"/><polyline points="100,3995 100,4005" stroke="black" fill="none"/>
      <!-- Legend for M9 : Newbridge - Dunblane -->
      <rect x="10" y="300" fill="purple" height="200" width="3500" stroke="white" stroke-width="1"/>
      <g text-anchor="start" font-size="180px" dominant-baseline="middle" fill="white" font-family="Fira Sans Condensed">
          <text x="60" y="400" font-weight="bold">M9</text>
          <text x="610" y="400">Newbridge - Dunblane</text>
      </g>


      <!-- Legend for M73 : Maryville - Mollinsburn -->
      <rect x="10" y="500" fill="yellow" height="200" width="3500" stroke="white" stroke-width="1"/>
      <g text-anchor="start" font-size="180px" dominant-baseline="middle" fill="black" font-family="Fira Sans Condensed">
          <text x="60" y="600" font-weight="bold">M73</text>
          <text x="610" y="600">Maryville - Mollinsburn</text>
      </g>


      <!-- Legend for M74 : Tradeston - Gretna -->
      <rect x="10" y="700" fill="blue" height="200" width="3500" stroke="white" stroke-width="1"/>
      <g text-anchor="start" font-size="180px" dominant-baseline="middle" fill="white" font-family="Fira Sans Condensed">
          <text x="60" y="800" font-weight="bold">M74</text>
          <text x="610" y="800">Tradeston - Gretna</text>
      </g>


      <!-- Legend for M77 : Tradeston - Fenwick -->
      <rect x="10" y="900" fill="dark-green" height="200" width="3500" stroke="white" stroke-width="1"/>
      <g text-anchor="start" font-size="180px" dominant-baseline="middle" fill="white" font-family="Fira Sans Condensed">
          <text x="60" y="1000" font-weight="bold">M77</text>
          <text x="610" y="1000">Tradeston - Fenwick</text>
      </g>


      <!-- Legend for M80 : Provan - Stirling -->
      <rect x="10" y="1100" fill="green" height="200" width="3500" stroke="white" stroke-width="1"/>
      <g text-anchor="start" font-size="180px" dominant-baseline="middle" fill="white" font-family="Fira Sans Condensed">
          <text x="60" y="1200" font-weight="bold">M80</text>
          <text x="610" y="1200">Provan - Stirling</text>
      </g>


      <!-- Legend for M90 : Kirliston - Perth -->
      <rect x="10" y="1300" fill="cyan" height="200" width="3500" stroke="white" stroke-width="1"/>
      <g text-anchor="start" font-size="180px" dominant-baseline="middle" fill="black" font-family="Fira Sans Condensed">
          <text x="60" y="1400" font-weight="bold">M90</text>
          <text x="610" y="1400">Kirliston - Perth</text>
      </g>


      <!-- Legend for M876 : Denny - Kincardine -->
      <rect x="10" y="1500" fill="pink" height="200" width="3500" stroke="white" stroke-width="1"/>
      <g text-anchor="start" font-size="180px" dominant-baseline="middle" fill="black" font-family="Fira Sans Condensed">
          <text x="60" y="1600" font-weight="bold">M876</text>
          <text x="610" y="1600">Denny - Kincardine</text>
      </g>


      <!-- Legend for M898 : Bishopton - Erskine Bridge -->
      <rect x="10" y="1700" fill="silver" height="200" width="3500" stroke="white" stroke-width="1"/>
      <g text-anchor="start" font-size="180px" dominant-baseline="middle" fill="black" font-family="Fira Sans Condensed">
          <text x="60" y="1800" font-weight="bold">M898</text>
          <text x="610" y="1800">Bishopton - Erskine Bridge</text>
      </g>

      <!-- M898  : Bishopton -->
      <!-- Connector: --> 

      <!-- M898 J1 : Erskine -->
      <!-- Connector: --> <polyline points="300,3800 300,3825 300,3975 300,4000" stroke="silver" fill="none" stroke-width="20" stroke-linecap="round"/>

      <!-- M898  : Erskine Bridge -->
      <!-- Connector: --> <polyline points="300,3600 300,3625 300,3775 300,3800" stroke="silver" fill="none" stroke-width="20" stroke-linecap="round"/>


        <!-- Terminator: --> 
        <!-- Interchange: --> <circle cx="300" cy="4000" r="25" fill="white" stroke="black" stroke-width="6.25" />
        <!-- Cell: --> <polyline points="275,3980 275,3975 280,3975" stroke="black" fill="none"/><polyline points="325,3980 325,3975 320,3975" stroke="black" fill="none"/><polyline points="325,4020 325,4025 320,4025" stroke="black" fill="none"/><polyline points="275,4020 275,4025 280,4025" stroke="black" fill="none"/><polyline points="295,3975 305,3975" stroke="black" fill="none"/><polyline points="295,4025 305,4025" stroke="black" fill="none"/><polyline points="275,3995 275,4005" stroke="black" fill="none"/><polyline points="325,3995 325,4005" stroke="black" fill="none"/><polyline points="295,4000 305,4000" stroke="black" fill="none"/><polyline points="300,3995 300,4005" stroke="black" fill="none"/>
        <!-- Terminator: --> 
        <!-- Interchange: --> 
        <!-- Cell: --> <polyline points="275,3780 275,3775 280,3775" stroke="black" fill="none"/><polyline points="325,3780 325,3775 320,3775" stroke="black" fill="none"/><polyline points="325,3820 325,3825 320,3825" stroke="black" fill="none"/><polyline points="275,3820 275,3825 280,3825" stroke="black" fill="none"/><polyline points="295,3775 305,3775" stroke="black" fill="none"/><polyline points="295,3825 305,3825" stroke="black" fill="none"/><polyline points="275,3795 275,3805" stroke="black" fill="none"/><polyline points="325,3795 325,3805" stroke="black" fill="none"/><polyline points="295,3800 305,3800" stroke="black" fill="none"/><polyline points="300,3795 300,3805" stroke="black" fill="none"/>
        <!-- Terminator: --> <rect x="275" y="3590" width="50" height="20" fill="silver" /><text x="300" y="3575" text-anchor="middle" dominant-baseline="baseline" font-family="Fira Sans Condensed" font-size="50px">M898</text>
        <!-- Interchange: --> 
        <!-- Cell: --> <polyline points="275,3580 275,3575 280,3575" stroke="black" fill="none"/><polyline points="325,3580 325,3575 320,3575" stroke="black" fill="none"/><polyline points="325,3620 325,3625 320,3625" stroke="black" fill="none"/><polyline points="275,3620 275,3625 280,3625" stroke="black" fill="none"/><polyline points="295,3575 305,3575" stroke="black" fill="none"/><polyline points="295,3625 305,3625" stroke="black" fill="none"/><polyline points="275,3595 275,3605" stroke="black" fill="none"/><polyline points="325,3595 325,3605" stroke="black" fill="none"/><polyline points="295,3600 305,3600" stroke="black" fill="none"/><polyline points="300,3595 300,3605" stroke="black" fill="none"/>

</svg>