<svg version="1.1"
     baseProfile="full"
     width="8000" height="8000"
     xmlns="http://www.w3.org/2000/svg">
  <style>
    @font-face {
        font-family: "Fira Sans Condensed";
        src: url("https://fonts.googleapis.com/css?family=Fira+Sans+Condensed&amp;display=swap");
    }
  </style>
    <!-- Background -->
    <rect width="100%" height="100%" fill="white" stroke="#dddddd"/>


      <!-- → Start : Start -->
      <!-- Connector: --> 
<!-- Terminator: --> <rect x="190" y="175" width="20" height="50" fill="blue" /><text x="180" y="200" text-anchor="end" dominant-baseline="middle" font-family="Fira Sans Condensed" font-size="50px">→</text>
      <!-- → End : End -->
      <!-- Connector: --> <path d="M200,200 L400,200" stroke="blue" fill="none" stroke-width="20" stroke-linecap="round" stroke-linejoin="round"/>
<!-- Terminator: --> <rect x="390" y="175" width="20" height="50" fill="blue" /><text x="420" y="200" dominant-baseline="middle" font-family="Fira Sans Condensed" font-size="50px">→</text>

      <!-- → Start : Start -->
<!-- Terminator: --> <rect x="190" y="175" width="20" height="50" fill="blue" /><text x="180" y="200" text-anchor="end" dominant-baseline="middle" font-family="Fira Sans Condensed" font-size="50px">→</text>
<!-- Label: --> <text x="200" y="230" font-family="Fira Sans Condensed" dominant-baseline="hanging" text-anchor="middle" font-size="50px">Start</text>
<!-- Cell: --> <polyline points="175,175 225,175 225,225 175,225 175,175" stroke="silver" fill="none" stroke-dasharray="3"/><polyline points="175,175 225,225" stroke="silver" fill="none" stroke-dasharray="3"/><polyline points="225,175 175,225" stroke="silver" fill="none" stroke-dasharray="3"/><polyline points="175,180 175,175 180,175" stroke="black" fill="none"/><polyline points="225,180 225,175 220,175" stroke="black" fill="none"/><polyline points="225,220 225,225 220,225" stroke="black" fill="none"/><polyline points="175,220 175,225 180,225" stroke="black" fill="none"/><polyline points="195,175 205,175" stroke="black" fill="none"/><polyline points="195,225 205,225" stroke="black" fill="none"/><polyline points="175,195 175,205" stroke="black" fill="none"/><polyline points="225,195 225,205" stroke="black" fill="none"/><polyline points="195,200 205,200" stroke="black" fill="none"/><polyline points="200,195 200,205" stroke="black" fill="none"/>
      <!-- → End : End -->
<!-- Terminator: --> <rect x="390" y="175" width="20" height="50" fill="blue" /><text x="420" y="200" dominant-baseline="middle" font-family="Fira Sans Condensed" font-size="50px">→</text>
<!-- Label: --> <text x="400" y="230" font-family="Fira Sans Condensed" dominant-baseline="hanging" text-anchor="middle" font-size="50px">End</text>
<!-- Cell: --> <polyline points="375,175 425,175 425,225 375,225 375,175" stroke="silver" fill="none" stroke-dasharray="3"/><polyline points="375,175 425,225" stroke="silver" fill="none" stroke-dasharray="3"/><polyline points="425,175 375,225" stroke="silver" fill="none" stroke-dasharray="3"/><polyline points="375,180 375,175 380,175" stroke="black" fill="none"/><polyline points="425,180 425,175 420,175" stroke="black" fill="none"/><polyline points="425,220 425,225 420,225" stroke="black" fill="none"/><polyline points="375,220 375,225 380,225" stroke="black" fill="none"/><polyline points="395,175 405,175" stroke="black" fill="none"/><polyline points="395,225 405,225" stroke="black" fill="none"/><polyline points="375,195 375,205" stroke="black" fill="none"/><polyline points="425,195 425,205" stroke="black" fill="none"/><polyline points="395,200 405,200" stroke="black" fill="none"/><polyline points="400,195 400,205" stroke="black" fill="none"/>

      <!-- → Start : Start -->
      <!-- Connector: --> 
<!-- Terminator: --> <rect x="590" y="175" width="20" height="50" fill="red" /><text x="580" y="200" text-anchor="end" dominant-baseline="middle" font-family="Fira Sans Condensed" font-size="50px">→</text>
      <!-- → End : End -->
      <!-- Connector: --> <path d="M600,200 L625,200 C675,200 725,150 775,150  L800,150" stroke="red" fill="none" stroke-width="20" stroke-linecap="round" stroke-linejoin="round"/>
<!-- Terminator: --> <rect x="790" y="125" width="20" height="50" fill="red" /><text x="820" y="150" dominant-baseline="middle" font-family="Fira Sans Condensed" font-size="50px">→</text>

      <!-- → Start : Start -->
<!-- Terminator: --> <rect x="590" y="175" width="20" height="50" fill="red" /><text x="580" y="200" text-anchor="end" dominant-baseline="middle" font-family="Fira Sans Condensed" font-size="50px">→</text>
<!-- Label: --> <text x="600" y="230" font-family="Fira Sans Condensed" dominant-baseline="hanging" text-anchor="middle" font-size="50px">Start</text>
<!-- Cell: --> <polyline points="575,175 625,175 625,225 575,225 575,175" stroke="silver" fill="none" stroke-dasharray="3"/><polyline points="575,175 625,225" stroke="silver" fill="none" stroke-dasharray="3"/><polyline points="625,175 575,225" stroke="silver" fill="none" stroke-dasharray="3"/><polyline points="575,180 575,175 580,175" stroke="black" fill="none"/><polyline points="625,180 625,175 620,175" stroke="black" fill="none"/><polyline points="625,220 625,225 620,225" stroke="black" fill="none"/><polyline points="575,220 575,225 580,225" stroke="black" fill="none"/><polyline points="595,175 605,175" stroke="black" fill="none"/><polyline points="595,225 605,225" stroke="black" fill="none"/><polyline points="575,195 575,205" stroke="black" fill="none"/><polyline points="625,195 625,205" stroke="black" fill="none"/><polyline points="595,200 605,200" stroke="black" fill="none"/><polyline points="600,195 600,205" stroke="black" fill="none"/>
      <!-- → End : End -->
<!-- Terminator: --> <rect x="790" y="125" width="20" height="50" fill="red" /><text x="820" y="150" dominant-baseline="middle" font-family="Fira Sans Condensed" font-size="50px">→</text>
<!-- Label: --> <text x="800" y="180" font-family="Fira Sans Condensed" dominant-baseline="hanging" text-anchor="middle" font-size="50px">End</text>
<!-- Cell: --> <polyline points="775,125 825,125 825,175 775,175 775,125" stroke="silver" fill="none" stroke-dasharray="3"/><polyline points="775,125 825,175" stroke="silver" fill="none" stroke-dasharray="3"/><polyline points="825,125 775,175" stroke="silver" fill="none" stroke-dasharray="3"/><polyline points="775,130 775,125 780,125" stroke="black" fill="none"/><polyline points="825,130 825,125 820,125" stroke="black" fill="none"/><polyline points="825,170 825,175 820,175" stroke="black" fill="none"/><polyline points="775,170 775,175 780,175" stroke="black" fill="none"/><polyline points="795,125 805,125" stroke="black" fill="none"/><polyline points="795,175 805,175" stroke="black" fill="none"/><polyline points="775,145 775,155" stroke="black" fill="none"/><polyline points="825,145 825,155" stroke="black" fill="none"/><polyline points="795,150 805,150" stroke="black" fill="none"/><polyline points="800,145 800,155" stroke="black" fill="none"/>

      <!-- → Start : Start -->
      <!-- Connector: --> 
<!-- Terminator: --> <rect x="990" y="175" width="20" height="50" fill="darkGreen" /><text x="980" y="200" text-anchor="end" dominant-baseline="middle" font-family="Fira Sans Condensed" font-size="50px">→</text>
      <!-- → End : End -->
      <!-- Connector: --> <path d="M1000,200 L1025,200 C1075,200 1125,250 1175,250  L1200,250" stroke="darkGreen" fill="none" stroke-width="20" stroke-linecap="round" stroke-linejoin="round"/>
<!-- Terminator: --> <rect x="1190" y="225" width="20" height="50" fill="darkGreen" /><text x="1220" y="250" dominant-baseline="middle" font-family="Fira Sans Condensed" font-size="50px">→</text>

      <!-- → Start : Start -->
<!-- Terminator: --> <rect x="990" y="175" width="20" height="50" fill="darkGreen" /><text x="980" y="200" text-anchor="end" dominant-baseline="middle" font-family="Fira Sans Condensed" font-size="50px">→</text>
<!-- Label: --> <text x="1000" y="230" font-family="Fira Sans Condensed" dominant-baseline="hanging" text-anchor="middle" font-size="50px">Start</text>
<!-- Cell: --> <polyline points="975,175 1025,175 1025,225 975,225 975,175" stroke="silver" fill="none" stroke-dasharray="3"/><polyline points="975,175 1025,225" stroke="silver" fill="none" stroke-dasharray="3"/><polyline points="1025,175 975,225" stroke="silver" fill="none" stroke-dasharray="3"/><polyline points="975,180 975,175 980,175" stroke="black" fill="none"/><polyline points="1025,180 1025,175 1020,175" stroke="black" fill="none"/><polyline points="1025,220 1025,225 1020,225" stroke="black" fill="none"/><polyline points="975,220 975,225 980,225" stroke="black" fill="none"/><polyline points="995,175 1005,175" stroke="black" fill="none"/><polyline points="995,225 1005,225" stroke="black" fill="none"/><polyline points="975,195 975,205" stroke="black" fill="none"/><polyline points="1025,195 1025,205" stroke="black" fill="none"/><polyline points="995,200 1005,200" stroke="black" fill="none"/><polyline points="1000,195 1000,205" stroke="black" fill="none"/>
      <!-- → End : End -->
<!-- Terminator: --> <rect x="1190" y="225" width="20" height="50" fill="darkGreen" /><text x="1220" y="250" dominant-baseline="middle" font-family="Fira Sans Condensed" font-size="50px">→</text>
<!-- Label: --> <text x="1200" y="280" font-family="Fira Sans Condensed" dominant-baseline="hanging" text-anchor="middle" font-size="50px">End</text>
<!-- Cell: --> <polyline points="1175,225 1225,225 1225,275 1175,275 1175,225" stroke="silver" fill="none" stroke-dasharray="3"/><polyline points="1175,225 1225,275" stroke="silver" fill="none" stroke-dasharray="3"/><polyline points="1225,225 1175,275" stroke="silver" fill="none" stroke-dasharray="3"/><polyline points="1175,230 1175,225 1180,225" stroke="black" fill="none"/><polyline points="1225,230 1225,225 1220,225" stroke="black" fill="none"/><polyline points="1225,270 1225,275 1220,275" stroke="black" fill="none"/><polyline points="1175,270 1175,275 1180,275" stroke="black" fill="none"/><polyline points="1195,225 1205,225" stroke="black" fill="none"/><polyline points="1195,275 1205,275" stroke="black" fill="none"/><polyline points="1175,245 1175,255" stroke="black" fill="none"/><polyline points="1225,245 1225,255" stroke="black" fill="none"/><polyline points="1195,250 1205,250" stroke="black" fill="none"/><polyline points="1200,245 1200,255" stroke="black" fill="none"/>

      <!-- ← Start : Start -->
      <!-- Connector: --> 
<!-- Terminator: --> <rect x="390" y="375" width="20" height="50" fill="purple" /><text x="420" y="400" dominant-baseline="middle" font-family="Fira Sans Condensed" font-size="50px">←</text>
      <!-- ← End : End -->
      <!-- Connector: --> <path d="M400,400 L200,400" stroke="purple" fill="none" stroke-width="20" stroke-linecap="round" stroke-linejoin="round"/>
<!-- Terminator: --> <rect x="190" y="375" width="20" height="50" fill="purple" /><text x="180" y="400" text-anchor="end" dominant-baseline="middle" font-family="Fira Sans Condensed" font-size="50px">←</text>

      <!-- ← Start : Start -->
<!-- Terminator: --> <rect x="390" y="375" width="20" height="50" fill="purple" /><text x="420" y="400" dominant-baseline="middle" font-family="Fira Sans Condensed" font-size="50px">←</text>
<!-- Label: --> <text x="400" y="430" font-family="Fira Sans Condensed" dominant-baseline="hanging" text-anchor="middle" font-size="50px">Start</text>
<!-- Cell: --> <polyline points="375,375 425,375 425,425 375,425 375,375" stroke="silver" fill="none" stroke-dasharray="3"/><polyline points="375,375 425,425" stroke="silver" fill="none" stroke-dasharray="3"/><polyline points="425,375 375,425" stroke="silver" fill="none" stroke-dasharray="3"/><polyline points="375,380 375,375 380,375" stroke="black" fill="none"/><polyline points="425,380 425,375 420,375" stroke="black" fill="none"/><polyline points="425,420 425,425 420,425" stroke="black" fill="none"/><polyline points="375,420 375,425 380,425" stroke="black" fill="none"/><polyline points="395,375 405,375" stroke="black" fill="none"/><polyline points="395,425 405,425" stroke="black" fill="none"/><polyline points="375,395 375,405" stroke="black" fill="none"/><polyline points="425,395 425,405" stroke="black" fill="none"/><polyline points="395,400 405,400" stroke="black" fill="none"/><polyline points="400,395 400,405" stroke="black" fill="none"/>
      <!-- ← End : End -->
<!-- Terminator: --> <rect x="190" y="375" width="20" height="50" fill="purple" /><text x="180" y="400" text-anchor="end" dominant-baseline="middle" font-family="Fira Sans Condensed" font-size="50px">←</text>
<!-- Label: --> <text x="200" y="430" font-family="Fira Sans Condensed" dominant-baseline="hanging" text-anchor="middle" font-size="50px">End</text>
<!-- Cell: --> <polyline points="175,375 225,375 225,425 175,425 175,375" stroke="silver" fill="none" stroke-dasharray="3"/><polyline points="175,375 225,425" stroke="silver" fill="none" stroke-dasharray="3"/><polyline points="225,375 175,425" stroke="silver" fill="none" stroke-dasharray="3"/><polyline points="175,380 175,375 180,375" stroke="black" fill="none"/><polyline points="225,380 225,375 220,375" stroke="black" fill="none"/><polyline points="225,420 225,425 220,425" stroke="black" fill="none"/><polyline points="175,420 175,425 180,425" stroke="black" fill="none"/><polyline points="195,375 205,375" stroke="black" fill="none"/><polyline points="195,425 205,425" stroke="black" fill="none"/><polyline points="175,395 175,405" stroke="black" fill="none"/><polyline points="225,395 225,405" stroke="black" fill="none"/><polyline points="195,400 205,400" stroke="black" fill="none"/><polyline points="200,395 200,405" stroke="black" fill="none"/>

      <!-- ← Start : Start -->
      <!-- Connector: --> 
<!-- Terminator: --> <rect x="790" y="375" width="20" height="50" fill="gray" /><text x="820" y="400" dominant-baseline="middle" font-family="Fira Sans Condensed" font-size="50px">←</text>
      <!-- ← End : End -->
      <!-- Connector: --> <path d="M800,400 L775,400 C725,400 675,350 625,350  L600,350" stroke="gray" fill="none" stroke-width="20" stroke-linecap="round" stroke-linejoin="round"/>
<!-- Terminator: --> <rect x="590" y="325" width="20" height="50" fill="gray" /><text x="580" y="350" text-anchor="end" dominant-baseline="middle" font-family="Fira Sans Condensed" font-size="50px">←</text>

      <!-- ← Start : Start -->
<!-- Terminator: --> <rect x="790" y="375" width="20" height="50" fill="gray" /><text x="820" y="400" dominant-baseline="middle" font-family="Fira Sans Condensed" font-size="50px">←</text>
<!-- Label: --> <text x="800" y="430" font-family="Fira Sans Condensed" dominant-baseline="hanging" text-anchor="middle" font-size="50px">Start</text>
<!-- Cell: --> <polyline points="775,375 825,375 825,425 775,425 775,375" stroke="silver" fill="none" stroke-dasharray="3"/><polyline points="775,375 825,425" stroke="silver" fill="none" stroke-dasharray="3"/><polyline points="825,375 775,425" stroke="silver" fill="none" stroke-dasharray="3"/><polyline points="775,380 775,375 780,375" stroke="black" fill="none"/><polyline points="825,380 825,375 820,375" stroke="black" fill="none"/><polyline points="825,420 825,425 820,425" stroke="black" fill="none"/><polyline points="775,420 775,425 780,425" stroke="black" fill="none"/><polyline points="795,375 805,375" stroke="black" fill="none"/><polyline points="795,425 805,425" stroke="black" fill="none"/><polyline points="775,395 775,405" stroke="black" fill="none"/><polyline points="825,395 825,405" stroke="black" fill="none"/><polyline points="795,400 805,400" stroke="black" fill="none"/><polyline points="800,395 800,405" stroke="black" fill="none"/>
      <!-- ← End : End -->
<!-- Terminator: --> <rect x="590" y="325" width="20" height="50" fill="gray" /><text x="580" y="350" text-anchor="end" dominant-baseline="middle" font-family="Fira Sans Condensed" font-size="50px">←</text>
<!-- Label: --> <text x="600" y="380" font-family="Fira Sans Condensed" dominant-baseline="hanging" text-anchor="middle" font-size="50px">End</text>
<!-- Cell: --> <polyline points="575,325 625,325 625,375 575,375 575,325" stroke="silver" fill="none" stroke-dasharray="3"/><polyline points="575,325 625,375" stroke="silver" fill="none" stroke-dasharray="3"/><polyline points="625,325 575,375" stroke="silver" fill="none" stroke-dasharray="3"/><polyline points="575,330 575,325 580,325" stroke="black" fill="none"/><polyline points="625,330 625,325 620,325" stroke="black" fill="none"/><polyline points="625,370 625,375 620,375" stroke="black" fill="none"/><polyline points="575,370 575,375 580,375" stroke="black" fill="none"/><polyline points="595,325 605,325" stroke="black" fill="none"/><polyline points="595,375 605,375" stroke="black" fill="none"/><polyline points="575,345 575,355" stroke="black" fill="none"/><polyline points="625,345 625,355" stroke="black" fill="none"/><polyline points="595,350 605,350" stroke="black" fill="none"/><polyline points="600,345 600,355" stroke="black" fill="none"/>

      <!-- ← Start : Start -->
      <!-- Connector: --> 
<!-- Terminator: --> <rect x="1190" y="375" width="20" height="50" fill="orange" /><text x="1220" y="400" dominant-baseline="middle" font-family="Fira Sans Condensed" font-size="50px">←</text>
      <!-- ← End : End -->
      <!-- Connector: --> <path d="M1200,400 L1175,400 C1125,400 1075,450 1025,450  L1000,450" stroke="orange" fill="none" stroke-width="20" stroke-linecap="round" stroke-linejoin="round"/>
<!-- Terminator: --> <rect x="990" y="425" width="20" height="50" fill="orange" /><text x="980" y="450" text-anchor="end" dominant-baseline="middle" font-family="Fira Sans Condensed" font-size="50px">←</text>

      <!-- ← Start : Start -->
<!-- Terminator: --> <rect x="1190" y="375" width="20" height="50" fill="orange" /><text x="1220" y="400" dominant-baseline="middle" font-family="Fira Sans Condensed" font-size="50px">←</text>
<!-- Label: --> <text x="1200" y="430" font-family="Fira Sans Condensed" dominant-baseline="hanging" text-anchor="middle" font-size="50px">Start</text>
<!-- Cell: --> <polyline points="1175,375 1225,375 1225,425 1175,425 1175,375" stroke="silver" fill="none" stroke-dasharray="3"/><polyline points="1175,375 1225,425" stroke="silver" fill="none" stroke-dasharray="3"/><polyline points="1225,375 1175,425" stroke="silver" fill="none" stroke-dasharray="3"/><polyline points="1175,380 1175,375 1180,375" stroke="black" fill="none"/><polyline points="1225,380 1225,375 1220,375" stroke="black" fill="none"/><polyline points="1225,420 1225,425 1220,425" stroke="black" fill="none"/><polyline points="1175,420 1175,425 1180,425" stroke="black" fill="none"/><polyline points="1195,375 1205,375" stroke="black" fill="none"/><polyline points="1195,425 1205,425" stroke="black" fill="none"/><polyline points="1175,395 1175,405" stroke="black" fill="none"/><polyline points="1225,395 1225,405" stroke="black" fill="none"/><polyline points="1195,400 1205,400" stroke="black" fill="none"/><polyline points="1200,395 1200,405" stroke="black" fill="none"/>
      <!-- ← End : End -->
<!-- Terminator: --> <rect x="990" y="425" width="20" height="50" fill="orange" /><text x="980" y="450" text-anchor="end" dominant-baseline="middle" font-family="Fira Sans Condensed" font-size="50px">←</text>
<!-- Label: --> <text x="1000" y="480" font-family="Fira Sans Condensed" dominant-baseline="hanging" text-anchor="middle" font-size="50px">End</text>
<!-- Cell: --> <polyline points="975,425 1025,425 1025,475 975,475 975,425" stroke="silver" fill="none" stroke-dasharray="3"/><polyline points="975,425 1025,475" stroke="silver" fill="none" stroke-dasharray="3"/><polyline points="1025,425 975,475" stroke="silver" fill="none" stroke-dasharray="3"/><polyline points="975,430 975,425 980,425" stroke="black" fill="none"/><polyline points="1025,430 1025,425 1020,425" stroke="black" fill="none"/><polyline points="1025,470 1025,475 1020,475" stroke="black" fill="none"/><polyline points="975,470 975,475 980,475" stroke="black" fill="none"/><polyline points="995,425 1005,425" stroke="black" fill="none"/><polyline points="995,475 1005,475" stroke="black" fill="none"/><polyline points="975,445 975,455" stroke="black" fill="none"/><polyline points="1025,445 1025,455" stroke="black" fill="none"/><polyline points="995,450 1005,450" stroke="black" fill="none"/><polyline points="1000,445 1000,455" stroke="black" fill="none"/>

</svg>